<svg xmlns="http://www.w3.org/2000/svg" viewBox="0 0 562.84 605.65"><defs><style>.cls-1,.cls-14,.cls-2{fill:none;}.cls-1,.cls-2,.cls-26,.cls-27{stroke:#38c6de;stroke-miterlimit:10;}.cls-1{stroke-width:2px;}.cls-2,.cls-26{stroke-width:3px;}.cls-3{font-size:50px;font-family:Nunito-ExtraBold, Nunito;font-weight:800;}.cls-26,.cls-27,.cls-3{fill:#03022c;}.cls-4{letter-spacing:-0.01em;}.cls-5{letter-spacing:-0.02em;}.cls-12,.cls-6{letter-spacing:-0.01em;}.cls-7{font-size:12px;font-family:MyriadPro-Regular, Myriad Pro;}.cls-10,.cls-11,.cls-12,.cls-13,.cls-7,.cls-8,.cls-9{font-weight:400;}.cls-10,.cls-11,.cls-12,.cls-13,.cls-8,.cls-9{fill:#4448b4;font-family:Montserrat-Regular, Montserrat;}.cls-8{letter-spacing:-0.01em;}.cls-9{letter-spacing:-0.02em;}.cls-10{letter-spacing:0em;}.cls-11{letter-spacing:-0.01em;}.cls-15{fill:#2d3077;}.cls-16{fill:#2c2e73;}.cls-17{fill:#2a2d70;}.cls-18{fill:#23255e;}.cls-19{fill:#30337f;}.cls-20{fill:#23255c;}.cls-21{fill:#252761;}.cls-22{fill:#262865;}.cls-23{fill:#272a68;}.cls-24{fill:#292b6c;}.cls-25{fill:#3b3f9d;}</style></defs><g id="Capa_2" data-name="Capa 2"><g id="Capa_3" data-name="Capa 3"><circle class="cls-1" cx="174.24" cy="59.65" r="3.43"/><line class="cls-2" x1="172.92" y1="137.22" x2="174.06" y2="63.85"/><circle class="cls-2" cx="156.56" cy="75.13" r="5.44"/><polyline class="cls-2" points="156.41 81.16 157.15 243 129.34 270.14 129.34 505.82"/><line class="cls-2" x1="182.6" y1="163.72" x2="183.74" y2="90.35"/><circle class="cls-1" cx="183.92" cy="86.15" r="3.43"/><circle class="cls-2" cx="237.31" cy="64.81" r="3.4"/><polyline class="cls-2" points="236.65 68.58 236.97 102.74 225.04 108.47 225.04 158.22"/><line class="cls-2" x1="211.6" y1="141.72" x2="212.74" y2="68.35"/><circle class="cls-1" cx="212.92" cy="64.15" r="3.43"/><circle class="cls-1" cx="371.12" cy="47.32" r="3.5"/><line class="cls-2" x1="369.62" y1="116.88" x2="370.36" y2="49.55"/><circle class="cls-1" cx="359.17" cy="66.38" r="3.5"/><line class="cls-2" x1="357.88" y1="137.7" x2="358.61" y2="70.37"/><circle class="cls-1" cx="482.95" cy="124.52" r="4.04"/><polyline class="cls-2" points="483.15 128.26 483.61 213.47 466.26 227.75 466.26 351.82"/><circle class="cls-1" cx="473.98" cy="244.05" r="3.5"/><line class="cls-2" x1="472.69" y1="380.82" x2="473.43" y2="248.05"/><circle class="cls-1" cx="463.27" cy="107.82" r="3.5"/><line class="cls-2" x1="461.98" y1="179.15" x2="462.72" y2="111.82"/><text class="cls-3" transform="translate(0 591.5)"><tspan class="cls-4">F</tspan><tspan x="28" y="0">O</tspan><tspan class="cls-5" x="67.8" y="0">R</tspan><tspan x="101.6" y="0">T</tspan><tspan class="cls-6" x="133.2" y="0">R</tspan><tspan x="167.3" y="0">AIN</tspan><tspan class="cls-7" x="257.45" y="0"> </tspan><tspan class="cls-8" x="259.99" y="0">E</tspan><tspan class="cls-9" x="292.94" y="0">V</tspan><tspan class="cls-10" x="326.79" y="0">O</tspan><tspan class="cls-11" x="368.74" y="0">L</tspan><tspan class="cls-12" x="397.54" y="0">U</tspan><tspan class="cls-13" x="436.44" y="0">TION</tspan></text><circle class="cls-1" cx="286.38" cy="4.43" r="3.43"/><line class="cls-2" x1="285.06" y1="116.82" x2="286.2" y2="8.63"/><circle class="cls-1" cx="270.7" cy="19.91" r="5.44"/><polyline class="cls-2" points="270.55 25.94 271.29 187.78 243.48 214.92 243.48 450.61"/><circle class="cls-1" cx="305.06" cy="29.93" r="3.43"/><circle class="cls-2" cx="349.45" cy="9.59" r="3.4"/><polyline class="cls-2" points="348.79 13.36 349.11 47.52 337.18 53.25 337.18 103"/><line class="cls-2" x1="323.74" y1="113.82" x2="324.88" y2="13.13"/><circle class="cls-1" cx="325.06" cy="8.93" r="3.43"/><line class="cls-2" x1="303.6" y1="105.99" x2="304.74" y2="32.62"/><circle class="cls-1" cx="449.27" cy="71.88" r="3.5"/><line class="cls-2" x1="447.98" y1="143.21" x2="448.72" y2="75.88"/></g><g id="Capa_2-2" data-name="Capa 2"><path class="cls-14" d="M271.81,167.9l-1.07.38Z"/><path class="cls-14" d="M269.9,168.62l-1,.42Z"/><path class="cls-14" d="M275.87,166.65l-1.19.32Z"/><path class="cls-14" d="M273.8,167.24l-1.12.35Z"/><path class="cls-14" d="M254.43,179.79l-.56.72Z"/><path class="cls-14" d="M264.73,171.09l-.3.18Z"/><path class="cls-14" d="M260,174.24l-.08.06Z"/><path class="cls-14" d="M252.08,183.09c-.15.23-.3.47-.44.71C251.78,183.56,251.93,183.32,252.08,183.09Z"/><path class="cls-14" d="M278,166.12l-1.29.29Z"/><path class="cls-14" d="M180.39,125.22c.84-.48,1.71-.92,2.6-1.35C182.1,124.3,181.23,124.74,180.39,125.22Z"/><path class="cls-14" d="M283.38,165.14q-1.15.17-2.28.36Q282.23,165.31,283.38,165.14Z"/><path class="cls-14" d="M267.32,169.75l.74-.35-.46.21C267.5,169.65,267.42,169.7,267.32,169.75Z"/><path class="cls-14" d="M280.37,165.64l-1.48.28Z"/><path class="cls-14" d="M183.73,123.52l.81-.36Z"/><path class="cls-14" d="M246.37,197.77c-.05.23-.09.47-.14.71C246.28,198.24,246.32,198,246.37,197.77Z"/><path class="cls-14" d="M250.63,185.59c.12-.23.24-.45.37-.67l-.28.47Z"/><path class="cls-14" d="M245.12,208.18c0,.29,0,.58,0,.88C245.09,208.76,245.11,208.47,245.12,208.18Z"/><path class="cls-14" d="M248.24,191c.09-.24.18-.47.26-.7,0,.12-.1.24-.15.36S248.28,190.92,248.24,191Z"/><path class="cls-14" d="M252.77,182c.16-.24.32-.47.49-.7l-.23.3Z"/><path class="cls-14" d="M257.8,176.17l.61-.57-.14.12C258.11,175.86,258,176,257.8,176.17Z"/><path class="cls-14" d="M256.41,177.54l.6-.62Z"/><path class="cls-14" d="M255.08,179c.2-.23.39-.46.59-.68l-.21.22Z"/><path class="cls-14" d="M245.92,200.19c0,.31-.09.62-.14.93C245.83,200.81,245.87,200.5,245.92,200.19Z"/><path class="cls-14" d="M247,195.09l-.09.35Z"/><path class="cls-14" d="M247.77,192.45c-.08.25-.17.49-.25.74C247.6,192.94,247.69,192.7,247.77,192.45Z"/><path class="cls-14" d="M261.76,173l.37-.26-.24.16Z"/><path class="cls-14" d="M245.57,202.71l-.12,1Z"/><path class="cls-14" d="M245.3,205.35c0,.33-.06.66-.08,1C245.24,206,245.27,205.68,245.3,205.35Z"/><path class="cls-14" d="M249.51,187.86l-.18.43Z"/><path class="cls-14" d="M463,144.48l.19.09h0l-.5-.26A3.07,3.07,0,0,1,463,144.48Z"/><path class="cls-14" d="M452.58,142h0Z"/><path class="cls-14" d="M452.06,142l.52,0h.08Z"/><path class="cls-14" d="M376.64,97.69c.33.13.65.27,1,.41C377.29,98,377,97.82,376.64,97.69Z"/><path class="cls-14" d="M374.66,97l1,.32Z"/><path class="cls-14" d="M370.54,96.26l.47,0Z"/><path class="cls-14" d="M372.94,96.62l.4.09Z"/><path class="cls-14" d="M453.67,142l.68.06Z"/><path class="cls-14" d="M448.66,142l.69,0Z"/><path class="cls-14" d="M459.68,143.11l-.4-.12Z"/><path class="cls-14" d="M461.4,143.72l-.07,0Z"/><path class="cls-14" d="M446.87,142.2l.6-.06h0Z"/><path class="cls-14" d="M455.06,142.15l.39.06-.11,0Z"/><path class="cls-14" d="M450.3,142h0Z"/><path class="cls-14" d="M450.47,142h0Z"/><path class="cls-14" d="M193.71,120.24l.85-.19Z"/><path class="cls-14" d="M455.34,142.19l.11,0,.43,0Z"/><path class="cls-14" d="M196,119.76l.74-.14Z"/><path class="cls-14" d="M460.45,143.37l.34.12Z"/><path class="cls-14" d="M462.47,144.21l-.12-.05.19.08Z"/><path class="cls-14" d="M185.57,122.74c.27-.11.55-.23.84-.33C186.12,122.51,185.84,122.63,185.57,122.74Z"/><path class="cls-14" d="M189.46,121.36l.89-.27Z"/><path class="cls-14" d="M187.48,122c.28-.1.57-.21.86-.3C188.05,121.81,187.76,121.92,187.48,122Z"/><path class="cls-14" d="M191.53,120.77l.89-.23Z"/><path class="cls-14" d="M458.56,142.78l-.41-.09.54.13Z"/><path class="cls-14" d="M368.32,96.1l.54,0Z"/><path class="cls-14" d="M456.71,142.39l.48.09.09,0Z"/><path class="cls-14" d="M365.77,96.1l.36,0Z"/><path class="cls-14" d="M363.13,96.27l.64-.06Z"/><path class="cls-14" d="M457.19,142.48l.29.06-.2,0Z"/><path class="cls-14" d="M445.44,293.17l-.5-.07.1,0Z"/><path class="cls-14" d="M161,159.47c0-.55.1-1.1.16-1.64C161.06,158.37,161,158.92,161,159.47Z"/><path class="cls-14" d="M446.92,293.41l-.6-.1.57.1Z"/><path class="cls-14" d="M442.18,292.89l-.63,0,.56,0Z"/><path class="cls-14" d="M162,151.89c.16-.79.34-1.57.53-2.33C162.37,150.32,162.19,151.1,162,151.89Z"/><path class="cls-14" d="M161.59,154.31c.09-.58.2-1.15.31-1.71C161.79,153.16,161.68,153.73,161.59,154.31Z"/><path class="cls-14" d="M161.23,156.83c.07-.54.14-1.07.22-1.6C161.37,155.76,161.3,156.29,161.23,156.83Z"/><path class="cls-14" d="M440.56,292.87h0Z"/><path class="cls-14" d="M445,293.12l-.1,0-.33,0Z"/><path class="cls-14" d="M164.17,144.45c.26-.69.53-1.37.82-2C164.7,143.08,164.43,143.76,164.17,144.45Z"/><path class="cls-14" d="M447.47,142.14l.54,0-.54,0Z"/><path class="cls-14" d="M442.53,292.9h0Z"/><path class="cls-14" d="M162.65,149.23c.17-.65.35-1.29.54-1.91C163,147.94,162.82,148.58,162.65,149.23Z"/><path class="cls-14" d="M163.43,146.57c.15-.48.31-.95.48-1.42C163.74,145.62,163.58,146.09,163.43,146.57Z"/><path class="cls-14" d="M440.09,292.87h0Z"/><path class="cls-14" d="M452.21,295.15l.52.28.2.09c-.23-.12-.47-.25-.71-.36Z"/><path class="cls-14" d="M357.84,247l.55,0Z"/><path class="cls-14" d="M355.22,247l.38,0Z"/><path class="cls-14" d="M360.12,247.17l.48.05Z"/><path class="cls-14" d="M352.52,247.18l.66-.05Z"/><path class="cls-14" d="M362.58,247.54l.4.08Z"/><path class="cls-14" d="M255.78,524.1c.29.24.59.49.89.71C256.37,524.59,256.07,524.34,255.78,524.1Z"/><path class="cls-14" d="M366.36,248.63c.33.13.66.27,1,.42C367,248.9,366.69,248.76,366.36,248.63Z"/><path class="cls-14" d="M160.69,166c0-.94,0-1.87.05-2.78C160.71,164.09,160.69,165,160.69,166Z"/><path class="cls-14" d="M364.34,248c.36.1.71.21,1.06.33C365.05,248.17,364.7,248.06,364.34,248Z"/><path class="cls-14" d="M160.78,162.3c0-.62.06-1.23.11-1.83C160.84,161.07,160.81,161.68,160.78,162.3Z"/><path class="cls-14" d="M257.1,525.1c.31.22.62.44.94.65C257.72,525.54,257.41,525.32,257.1,525.1Z"/><path class="cls-14" d="M254.13,522.66c.4.39.81.77,1.24,1.12C254.94,523.43,254.53,523.05,254.13,522.66Z"/><path class="cls-14" d="M448.24,293.71l-.44-.1.53.13Z"/><path class="cls-14" d="M174.08,129.72c.5-.45,1-.88,1.55-1.3C175.1,128.84,174.58,129.27,174.08,129.72Z"/><path class="cls-14" d="M450.13,294.29l.37.14Z"/><path class="cls-14" d="M448.94,293.91l.4.12Z"/><path class="cls-14" d="M443.2,292.94l.68.05Z"/><path class="cls-14" d="M177.8,126.84c.74-.51,1.51-1,2.3-1.45C179.31,125.85,178.54,126.33,177.8,126.84Z"/><path class="cls-14" d="M451.07,294.64l.15.07Z"/><path class="cls-14" d="M436.24,293.11l.6-.05Z"/><path class="cls-14" d="M436.86,293.06l.54-.05Z"/><path class="cls-14" d="M447.08,293.44l-.16,0h0Z"/><path class="cls-14" d="M438.07,293l.69,0Z"/><path class="cls-14" d="M175.7,128.36c.56-.44,1.13-.86,1.72-1.27C176.83,127.5,176.26,127.92,175.7,128.36Z"/><path class="cls-14" d="M166.66,139c.21-.38.42-.75.64-1.12C167.08,138.29,166.87,138.66,166.66,139Z"/><path class="cls-14" d="M165.18,142c.35-.78.72-1.53,1.11-2.27C165.9,140.45,165.53,141.2,165.18,142Z"/><path class="cls-14" d="M172.67,131l.8-.75Z"/><path class="cls-14" d="M167.74,137.21q.34-.54.69-1.05Q168.08,136.67,167.74,137.21Z"/><path class="cls-14" d="M168.92,135.46c.2-.28.41-.56.62-.83C169.33,134.9,169.12,135.18,168.92,135.46Z"/><path class="cls-14" d="M171.34,132.45l.73-.78Z"/><path class="cls-14" d="M170.09,133.92l.66-.79Z"/><path class="cls-15" d="M446.87,142.2l.6-.06.54,0,.65-.06.69,0,.95,0h.8c.32,0,.64,0,1,0l.6,0H453l.65,0,.68.06.71.06.28,0,.54.07.83.13.57.11.2,0c.23,0,.45.1.67.15l.41.09L374.31,97c-.32-.08-.64-.17-1-.24l-.4-.09c-.62-.13-1.27-.23-1.93-.31l-.47,0c-.55-.06-1.11-.1-1.68-.13l-.54,0c-.71,0-1.44,0-2.19,0l-.36,0c-.65,0-1.32.06-2,.11l-.64.06c-.8.07-1.61.16-2.45.28L445,142.42C445.65,142.33,446.26,142.26,446.87,142.2Z"/><path class="cls-16" d="M458.69,142.82l.59.17.4.12.77.26.34.12.54.21.07,0,1,.44.12.05L378.55,98.55c-.31-.16-.63-.3-.95-.45s-.63-.28-1-.41-.62-.23-.94-.33l-1-.32-.35-.09,84.25,45.83Z"/><path class="cls-17" d="M462.54,144.24l.13.07.5.26L378.84,98.69l-.29-.14,83.92,45.66Z"/><path class="cls-18" d="M257.1,525.1l-.43-.29c-.3-.22-.6-.47-.89-.71a4.12,4.12,0,0,1-.41-.32c-.43-.35-.84-.73-1.24-1.12q-9.66-9.35-9.63-29.75L160.17,447q0,20.42,9.62,29.75a24.19,24.19,0,0,0,5.35,3.93l84.33,45.88c-.29-.16-.57-.33-.85-.5l-.58-.34C257.72,525.54,257.41,525.32,257.1,525.1Z"/><polygon class="cls-19" points="445.02 142.42 360.68 96.55 199.05 119.26 283.38 165.14 445.02 142.42"/><polygon class="cls-20" points="244.92 269.89 233.74 263.81 244.93 262.24 245.02 211.84 160.69 165.96 160.17 447.03 244.5 492.91 244.92 269.89"/><polygon class="cls-20" points="244.92 269.89 244.93 262.24 233.74 263.81 244.92 269.89"/><path class="cls-18" d="M245.08,209.06c0-.3,0-.59,0-.88,0-.62.06-1.23.1-1.83,0-.34.05-.67.08-1l.15-1.64.12-1c.06-.54.14-1.07.21-1.59.05-.31.09-.62.14-.93.1-.58.2-1.15.31-1.71.05-.24.09-.48.14-.71.16-.79.33-1.57.53-2.33l.09-.35c.17-.64.35-1.27.53-1.9.08-.25.17-.49.25-.74.15-.48.31-1,.47-1.42,0-.11.08-.23.11-.34L164,144.82l-.12.33c-.17.47-.33.94-.48,1.42l-.24.75c-.19.62-.37,1.26-.54,1.91,0,.11-.06.22-.09.33-.19.76-.37,1.54-.53,2.33-.05.23-.09.47-.13.71-.11.56-.22,1.13-.31,1.71-.05.31-.1.62-.14.92-.08.53-.15,1.06-.22,1.6,0,.33-.08.67-.11,1-.06.54-.11,1.09-.16,1.64,0,.34-.05.67-.07,1,0,.6-.08,1.21-.11,1.83,0,.29,0,.58,0,.88,0,.91-.05,1.84-.05,2.78L245,211.84C245,210.9,245.05,210,245.08,209.06Z"/><path class="cls-21" d="M248.5,190.33c.26-.69.54-1.37.83-2l.18-.43c.35-.78.73-1.53,1.12-2.27l.09-.2L166.4,139.52l-.11.19c-.39.74-.76,1.49-1.11,2.27-.07.14-.12.29-.19.44-.29.66-.56,1.34-.82,2,0,.13-.1.25-.14.37l84.32,45.87C248.4,190.57,248.46,190.45,248.5,190.33Z"/><path class="cls-22" d="M251,184.92c.21-.38.42-.76.64-1.12s.29-.48.44-.71.45-.71.69-1.05l.26-.4-84.32-45.87-.28.39q-.35.51-.69,1.05l-.44.71c-.22.37-.43.74-.64,1.12-.09.16-.18.32-.26.48l84.32,45.87Z"/><path class="cls-23" d="M253.26,181.34c.2-.28.4-.56.61-.83l.56-.72.65-.78.38-.46-84.32-45.87-.39.45-.66.79c-.19.23-.37.47-.55.71s-.42.55-.62.83l-.21.31L253,181.64Z"/><path class="cls-24" d="M255.67,178.33c.24-.27.49-.53.74-.79l.6-.62c.26-.26.53-.5.79-.75s.31-.31.47-.45L174,129.84l-.48.45-.8.75-.6.63-.73.78-.2.23,84.32,45.87Z"/><path class="cls-17" d="M258.41,175.6c.5-.45,1-.88,1.54-1.3l.08-.06c.56-.44,1.14-.86,1.73-1.27l.13-.1L177.56,127a.71.71,0,0,1-.14.1c-.59.41-1.16.83-1.72,1.27l-.07.06c-.53.42-1,.85-1.55,1.3l-.13.12,84.32,45.88Z"/><path class="cls-16" d="M262.13,172.71c.75-.5,1.51-1,2.3-1.44l.3-.18c.83-.47,1.7-.92,2.59-1.34.1-.05.18-.1.28-.14l-84.32-45.87-.29.13c-.89.43-1.76.87-2.6,1.35l-.29.17c-.79.46-1.56.94-2.3,1.45l-.24.15,84.33,45.88Z"/><path class="cls-15" d="M268.06,169.4l.82-.36,1-.42.84-.34,1.07-.38.87-.31,1.12-.35.88-.27,1.19-.32.88-.24,1.29-.29.85-.2,1.48-.28.73-.14q1.13-.19,2.28-.36l-84.33-45.88q-1.16.17-2.28.36l-.74.14c-.49.09-1,.18-1.47.29l-.85.19c-.43.09-.87.19-1.29.3l-.89.23-1.18.32-.89.27c-.37.12-.75.23-1.12.36s-.58.2-.86.3-.72.25-1.07.39-.57.22-.84.33l-1,.42-.81.36-.45.22,84.32,45.87Z"/><path class="cls-25" d="M445,142.42c.83-.11,1.65-.2,2.45-.28l-.6.06C446.26,142.26,445.65,142.33,445,142.42Z"/><path class="cls-25" d="M446.89,293.41l-.57-.1-.88-.14-.4-.05C445.67,293.2,446.29,293.29,446.89,293.41Z"/><path class="cls-25" d="M444.45,293.05l-.57-.06-.68-.05-.47,0C443.31,292.94,443.89,293,444.45,293.05Z"/><path class="cls-25" d="M442.11,292.89l-.56,0h-1.46C440.78,292.86,441.45,292.86,442.11,292.89Z"/><path class="cls-25" d="M439.55,292.89l-.79,0-.69,0-.55,0C438.21,293,438.89,292.91,439.55,292.89Z"/><path class="cls-25" d="M458.15,142.69l-.47-.1c.45.09.88.21,1.31.33l-.3-.1Z"/><path class="cls-25" d="M460.45,143.37l-.42-.13c.32.1.64.21.94.33l-.18-.08Z"/><path class="cls-25" d="M462.54,144.24l-.19-.08c-.13-.07-.28-.12-.41-.18.35.16.71.32,1,.5a3.07,3.07,0,0,0-.31-.17Z"/><path class="cls-25" d="M448.68,293.84l-.35-.1-.53-.13-.49-.11C447.78,293.6,448.23,293.72,448.68,293.84Z"/><path class="cls-25" d="M450.69,294.51l-.19-.08-.37-.14c-.13-.05-.27-.08-.4-.12C450.06,294.28,450.38,294.39,450.69,294.51Z"/><path class="cls-25" d="M455.88,142.26l-.43,0q.89.1,1.74.27l-.48-.09Z"/><path class="cls-25" d="M451.1,142h-.49c.67,0,1.33,0,2,0l-.52,0C451.74,142,451.42,142,451.1,142Z"/><path class="cls-25" d="M451.67,294.92c.36.16.72.33,1.06.51l-.52-.28Z"/><path class="cls-25" d="M448.66,142l-.55.05c.68-.05,1.35-.09,2-.11l-.76,0Z"/><path class="cls-26" d="M434.34,293.35c.86-.13,1.7-.22,2.52-.29h0l.54-.05h.12c.69-.05,1.37-.09,2-.11h.54c.69,0,1.36,0,2,0h.62c.58,0,1.16.08,1.72.14h.16l.43.06c.63.08,1.25.17,1.85.29l.19,0,.23.06c.47.1.92.22,1.37.34l.26.07.4.12c.14,0,.26.09.39.14.33.11.65.22,1,.34l.38.13.15.07c.16.06.3.14.45.21.36.16.72.33,1.06.51q10.88,5.74,10.86,24.4-.06,31.13-29.36,35.24L318,371.41l-.2,111.2q-.08,41.83-36,46.88-14.14,2-23.14-3.4l-.58-.34c-.32-.21-.63-.43-.94-.65l-.43-.29c-.3-.22-.6-.47-.89-.71a4.12,4.12,0,0,1-.41-.32c-.43-.35-.84-.73-1.24-1.12q-9.66-9.35-9.63-29.75L245,211.84c0-.94,0-1.87.06-2.78,0-.3,0-.59,0-.88,0-.62.06-1.23.1-1.83,0-.34.05-.67.08-1l.15-1.64.12-1c.06-.54.14-1.07.21-1.59.05-.31.09-.62.14-.93.1-.58.2-1.15.31-1.71.05-.24.09-.48.14-.71.16-.79.33-1.57.53-2.33l.09-.35c.17-.64.35-1.27.53-1.9.08-.25.17-.49.25-.74.15-.48.31-1,.47-1.42.09-.24.18-.47.26-.7.26-.69.54-1.37.83-2l.18-.43c.35-.78.73-1.53,1.12-2.27.12-.23.24-.45.37-.67.21-.38.42-.76.64-1.12s.29-.48.44-.71.45-.71.69-1.05.32-.47.49-.7.4-.56.61-.83l.56-.72.65-.78c.2-.23.39-.46.59-.68s.49-.53.74-.79l.6-.62c.26-.26.53-.5.79-.75l.61-.57c.5-.45,1-.88,1.54-1.3l.08-.06c.56-.44,1.14-.86,1.73-1.27l.37-.26c.75-.5,1.51-1,2.3-1.44l.3-.18c.83-.47,1.7-.92,2.59-1.34l.74-.35.82-.36,1-.42.84-.34,1.07-.38.87-.31,1.12-.35.88-.27,1.19-.32.88-.24,1.29-.29.85-.2,1.48-.28.73-.14q1.13-.19,2.28-.36L445,142.42c.83-.11,1.65-.2,2.45-.28l.54,0h.1c.68-.05,1.35-.09,2-.11h.5c.67,0,1.33,0,2,0H453l.17,0c.58,0,1.14.07,1.69.13h.18l.39.06q.89.1,1.74.27l.29.06.2.05c.45.09.88.21,1.31.33l.29.07.4.12.35.13c.32.1.64.21.94.33.12.05.25.08.36.13l.07,0c.19.08.36.18.54.26.35.16.71.32,1,.5q10.84,5.73,10.81,24.5-.06,31.13-28.89,35.17L318.24,222l-.05,30-.09,43.58,0,14.17,116.26-16.34"/><path class="cls-25" d="M436.84,293.06l-.6.05-1.9.24c.86-.13,1.7-.22,2.52-.29Z"/><path class="cls-25" d="M453.67,142l-.48,0c.58,0,1.14.07,1.69.13l-.53,0Z"/><path class="cls-25" d="M445.44,293.17l.88.14Z"/><path class="cls-25" d="M438.07,293l-.67.05h.12Z"/><path class="cls-25" d="M447.8,293.61l-.72-.17.23.06Z"/><path class="cls-25" d="M436.86,293.06h0Z"/><path class="cls-25" d="M440.56,292.87h0Z"/><path class="cls-25" d="M434.34,293.35l1.9-.24Z"/><path class="cls-25" d="M439.75,292.88l-1,0,.79,0Z"/><path class="cls-25" d="M443.2,292.94l-.67,0h.2Z"/><path class="cls-25" d="M444.61,293.06l-.73-.07.57.06Z"/><path class="cls-25" d="M448.94,293.91l-.61-.17.35.1Z"/><path class="cls-25" d="M452.21,295.15c-.32-.16-.65-.3-1-.44.16.06.3.14.45.21Z"/><path class="cls-25" d="M451.07,294.64l-.57-.21.19.08Z"/><path class="cls-25" d="M450.13,294.29l-.79-.26c.14,0,.26.09.39.14S450,294.24,450.13,294.29Z"/><path class="cls-25" d="M453,142l.17,0,.48,0Z"/><path class="cls-25" d="M457.48,142.54l.2.05.47.1C457.93,142.64,457.71,142.58,457.48,142.54Z"/><path class="cls-25" d="M454.88,142.14h.18l-.71-.06Z"/><path class="cls-25" d="M455.88,142.26l.83.13Z"/><path class="cls-25" d="M448,142.1h.1l.55-.05Z"/><path class="cls-25" d="M445,142.42c.63-.09,1.24-.16,1.85-.22C446.26,142.26,445.65,142.33,445,142.42Z"/><path class="cls-25" d="M450.11,142h.19l-.95,0Z"/><path class="cls-25" d="M451.1,142c.32,0,.64,0,1,0C451.74,142,451.42,142,451.1,142Z"/><path class="cls-25" d="M459.68,143.11l.35.13.42.13Z"/><path class="cls-25" d="M461.4,143.72c.19.08.36.18.54.26s.28.11.41.18Z"/><path class="cls-25" d="M459,142.92l.29.07-.59-.17Z"/><path class="cls-25" d="M461,143.57c.12.05.25.08.36.13l-.54-.21Z"/><path class="cls-25" d="M462.54,144.24l.13.07Z"/><path class="cls-25" d="M255.37,523.78a4.12,4.12,0,0,0,.41.32A4.12,4.12,0,0,1,255.37,523.78Z"/><path class="cls-25" d="M256.67,524.81l.43.29Z"/><path class="cls-25" d="M258.62,526.09l-.58-.34Z"/><path class="cls-27" d="M318.62,251.82c15.3-2.2,27.08-3.86,33.07-4.69a32.73,32.73,0,0,1,4.93-.31,21.75,21.75,0,0,1,7,1,17.42,17.42,0,0,1,4,2c3.54,2.35,33.9,18.81,79,43l-3.42.12-5.68.06-10.39,1.36L318.62,309.69Z"/></g></g></svg>