<svg xmlns="http://www.w3.org/2000/svg" viewBox="0 0 1920 1847"><defs><style>.cls-1,.cls-2,.cls-3{fill:none;}.cls-1,.cls-15,.cls-2{stroke:#38c6de;stroke-miterlimit:10;}.cls-1{stroke-width:2px;}.cls-2{stroke-width:3px;}.cls-4{fill:#2d3077;}.cls-5{fill:#2c2e73;}.cls-6{fill:#2a2d70;}.cls-7{fill:#23255e;}.cls-8{fill:#30337f;}.cls-9{fill:#23255c;}.cls-10{fill:#252761;}.cls-11{fill:#262865;}.cls-12{fill:#272a68;}.cls-13{fill:#292b6c;}.cls-14{fill:#3b3f9d;}.cls-15{fill:#03022c;}</style></defs><g id="LOGOTIPO_ELEGIDO_FE" data-name="LOGOTIPO ELEGIDO FE"><circle class="cls-1" cx="748.7" cy="643.83" r="3.43"/><line class="cls-2" x1="747.38" y1="721.39" x2="748.52" y2="648.03"/><circle class="cls-2" cx="731.02" cy="659.3" r="5.44"/><polyline class="cls-2" points="730.88 665.33 731.61 827.17 703.8 854.32 703.8 1090"/><line class="cls-2" x1="757.06" y1="747.89" x2="758.2" y2="674.52"/><circle class="cls-1" cx="758.38" cy="670.32" r="3.43"/><circle class="cls-2" cx="811.78" cy="648.99" r="3.4"/><polyline class="cls-2" points="811.11 652.75 811.43 686.92 799.5 692.64 799.5 742.39"/><line class="cls-2" x1="786.06" y1="725.89" x2="787.2" y2="652.52"/><circle class="cls-1" cx="787.38" cy="648.32" r="3.43"/><circle class="cls-1" cx="945.58" cy="631.5" r="3.5"/><line class="cls-2" x1="944.08" y1="701.05" x2="944.82" y2="633.72"/><circle class="cls-1" cx="933.63" cy="650.55" r="3.5"/><line class="cls-2" x1="932.34" y1="721.88" x2="933.07" y2="654.55"/><circle class="cls-1" cx="1057.41" cy="708.69" r="4.04"/><polyline class="cls-2" points="1057.61 712.44 1058.07 797.64 1040.72 811.93 1040.72 936"/><circle class="cls-1" cx="1048.44" cy="828.23" r="3.5"/><line class="cls-2" x1="1047.15" y1="965" x2="1047.89" y2="832.22"/><circle class="cls-1" cx="1041.74" cy="692" r="3.5"/><line class="cls-2" x1="1040.45" y1="763.32" x2="1041.18" y2="695.99"/><circle class="cls-1" cx="860.84" cy="588.61" r="3.43"/><line class="cls-2" x1="859.52" y1="701" x2="860.66" y2="592.81"/><circle class="cls-1" cx="845.16" cy="604.08" r="5.44"/><polyline class="cls-2" points="845.01 610.11 845.75 771.96 817.94 799.1 817.94 1034.78"/><circle class="cls-1" cx="879.52" cy="614.1" r="3.43"/><circle class="cls-2" cx="923.92" cy="593.77" r="3.4"/><polyline class="cls-2" points="923.25 597.53 923.57 631.7 911.64 637.43 911.64 687.17"/><line class="cls-2" x1="898.2" y1="698" x2="899.34" y2="597.3"/><circle class="cls-1" cx="899.52" cy="593.1" r="3.43"/><line class="cls-2" x1="878.06" y1="690.16" x2="879.2" y2="616.79"/><circle class="cls-1" cx="1029.74" cy="656.06" r="3.5"/><line class="cls-2" x1="1028.45" y1="727.38" x2="1029.18" y2="660.05"/><path class="cls-3" d="M846.27,752.07l-1.06.39Z"/><path class="cls-3" d="M844.36,752.79l-1,.42Z"/><path class="cls-3" d="M850.33,750.82c-.4.11-.8.21-1.19.33C849.53,751,849.93,750.93,850.33,750.82Z"/><path class="cls-3" d="M848.26,751.42l-1.12.35Z"/><path class="cls-3" d="M828.89,764c-.19.23-.37.47-.56.71C828.52,764.44,828.7,764.2,828.89,764Z"/><path class="cls-3" d="M839.19,755.27l-.29.17Z"/><path class="cls-3" d="M834.5,758.41l-.08.07Z"/><path class="cls-3" d="M826.54,767.26l-.44.71Z"/><path class="cls-3" d="M852.5,750.29l-1.29.3Z"/><path class="cls-3" d="M754.85,709.39c.84-.47,1.71-.92,2.6-1.34C756.56,708.47,755.69,708.92,754.85,709.39Z"/><path class="cls-3" d="M857.84,749.31q-1.15.16-2.28.36Q856.69,749.47,857.84,749.31Z"/><path class="cls-3" d="M841.78,753.92l.74-.34-.46.2C842,753.83,841.88,753.88,841.78,753.92Z"/><path class="cls-3" d="M854.83,749.81l-1.48.29Z"/><path class="cls-3" d="M758.19,707.7l.81-.36Z"/><path class="cls-3" d="M820.83,781.94c-.05.24-.09.48-.14.72C820.74,782.42,820.78,782.18,820.83,781.94Z"/><path class="cls-3" d="M825.09,769.77l.37-.68-.28.48Z"/><path class="cls-3" d="M819.58,792.35c0,.3,0,.59,0,.88C819.55,792.94,819.57,792.65,819.58,792.35Z"/><path class="cls-3" d="M822.7,775.2c.09-.23.18-.46.26-.69,0,.12-.1.23-.14.36Z"/><path class="cls-3" d="M827.23,766.21c.16-.23.32-.47.49-.7a3.55,3.55,0,0,0-.23.31Z"/><path class="cls-3" d="M832.26,760.34l.62-.57-.15.12Z"/><path class="cls-3" d="M830.87,761.72l.6-.62Z"/><path class="cls-3" d="M829.55,763.18c.19-.23.38-.45.58-.67l-.21.22C829.79,762.87,829.67,763,829.55,763.18Z"/><path class="cls-3" d="M820.38,784.36c0,.31-.09.62-.13.93C820.29,785,820.33,784.67,820.38,784.36Z"/><path class="cls-3" d="M821.45,779.27l-.09.34Z"/><path class="cls-3" d="M822.23,776.62c-.08.25-.17.5-.24.75C822.06,777.12,822.15,776.87,822.23,776.62Z"/><path class="cls-3" d="M836.22,757.14l.38-.25-.25.15Z"/><path class="cls-3" d="M820,786.89c0,.33-.08.66-.11,1C820,787.55,820,787.22,820,786.89Z"/><path class="cls-3" d="M819.76,789.53c0,.33-.06.66-.08,1C819.7,790.19,819.73,789.86,819.76,789.53Z"/><path class="cls-3" d="M824,772c-.07.15-.13.29-.19.44C823.85,772.32,823.91,772.18,824,772Z"/><path class="cls-3" d="M1037.44,728.65l.19.09h0l-.5-.26Z"/><path class="cls-3" d="M1027,726.15l.44,0-.36,0Z"/><path class="cls-3" d="M1026.52,726.14h0Z"/><path class="cls-3" d="M951.1,681.87c.33.13.65.26,1,.41C951.75,682.13,951.43,682,951.1,681.87Z"/><path class="cls-3" d="M949.12,681.21l1,.32Z"/><path class="cls-3" d="M945,680.44l.46,0Z"/><path class="cls-3" d="M947.41,680.79l.39.09Z"/><path class="cls-3" d="M1028.13,726.21l.69,0Z"/><path class="cls-3" d="M1023.12,726.22l.69,0Z"/><path class="cls-3" d="M1034.14,727.29l-.39-.13Z"/><path class="cls-3" d="M1035.86,727.9l-.07,0Z"/><path class="cls-3" d="M1021.33,726.37l.6,0h0Z"/><path class="cls-3" d="M1029.52,726.33l.39,0-.11,0Z"/><path class="cls-3" d="M1024.76,726.14h0Z"/><path class="cls-3" d="M1024.93,726.14h0Z"/><path class="cls-3" d="M768.17,704.41l.85-.19Z"/><path class="cls-3" d="M1029.8,726.36l.11,0,.43.06Z"/><path class="cls-3" d="M770.5,703.94l.73-.14Z"/><path class="cls-3" d="M1034.91,727.54l.34.13Z"/><path class="cls-3" d="M1036.94,728.38l-.13,0,.19.09Z"/><path class="cls-3" d="M760,706.91l.84-.33Z"/><path class="cls-3" d="M763.92,705.54l.89-.27Z"/><path class="cls-3" d="M761.94,706.19l.86-.3Z"/><path class="cls-3" d="M766,704.94l.88-.23Z"/><path class="cls-3" d="M1033,727l-.41-.09.54.13Z"/><path class="cls-3" d="M942.78,680.28l.54,0Z"/><path class="cls-3" d="M1031.17,726.57l.48.09h.09Z"/><path class="cls-3" d="M940.23,680.27h0Z"/><path class="cls-3" d="M937.6,680.44l.64-.05Z"/><path class="cls-3" d="M1031.65,726.66l.3.05-.21,0Z"/><path class="cls-3" d="M1019.9,877.34l-.5-.07.1,0Z"/><path class="cls-3" d="M735.43,743.65q.06-.82.15-1.65Q735.49,742.83,735.43,743.65Z"/><path class="cls-3" d="M1021.38,877.59l-.6-.11.57.1Z"/><path class="cls-3" d="M1016.64,877.06l-.63,0,.56,0Z"/><path class="cls-3" d="M736.49,736.07c.16-.79.34-1.57.53-2.34C736.83,734.5,736.65,735.28,736.49,736.07Z"/><path class="cls-3" d="M736.05,738.49c.09-.58.2-1.15.31-1.72C736.25,737.34,736.14,737.91,736.05,738.49Z"/><path class="cls-3" d="M735.69,741c.07-.54.14-1.07.22-1.6C735.83,739.94,735.76,740.47,735.69,741Z"/><path class="cls-3" d="M1015,877h0Z"/><path class="cls-3" d="M1019.5,877.29l-.1,0-.33,0Z"/><path class="cls-3" d="M738.63,728.63c.26-.69.53-1.37.82-2C739.16,727.26,738.89,727.94,738.63,728.63Z"/><path class="cls-3" d="M1021.93,726.32l.54-.05-.54.05Z"/><path class="cls-3" d="M1017,877.07h0Z"/><path class="cls-3" d="M737.12,733.4c.16-.65.34-1.28.53-1.91C737.46,732.12,737.28,732.75,737.12,733.4Z"/><path class="cls-3" d="M737.89,730.75c.15-.48.31-1,.48-1.43C738.2,729.79,738,730.27,737.89,730.75Z"/><path class="cls-3" d="M1014.55,877.05h0Z"/><path class="cls-3" d="M1026.67,879.33c.18.08.35.18.52.27l.2.1c-.23-.13-.47-.25-.71-.37Z"/><path class="cls-3" d="M932.31,831.18l.54,0Z"/><path class="cls-3" d="M929.68,831.19l.38,0Z"/><path class="cls-3" d="M934.58,831.35l.48,0Z"/><path class="cls-3" d="M927,831.36l.66-.06Z"/><path class="cls-3" d="M937,831.71l.4.09Z"/><path class="cls-3" d="M830.24,1108.28c.29.24.59.48.9.71C830.83,1108.76,830.53,1108.52,830.24,1108.28Z"/><path class="cls-3" d="M940.82,832.81l1,.41Z"/><path class="cls-3" d="M735.15,750.14c0-.95,0-1.87.05-2.79C735.17,748.27,735.15,749.19,735.15,750.14Z"/><path class="cls-3" d="M938.8,832.14l1.06.32Z"/><path class="cls-3" d="M735.25,746.47c0-.61,0-1.22.1-1.82C735.3,745.25,735.27,745.86,735.25,746.47Z"/><path class="cls-3" d="M831.56,1109.28c.31.22.62.44.94.65C832.18,1109.72,831.87,1109.5,831.56,1109.28Z"/><path class="cls-3" d="M828.59,1106.84c.4.39.82.76,1.24,1.12C829.41,1107.6,829,1107.23,828.59,1106.84Z"/><path class="cls-3" d="M1022.7,877.88l-.44-.09.53.12Z"/><path class="cls-3" d="M748.54,713.9c.5-.45,1-.89,1.55-1.31C749.56,713,749,713.45,748.54,713.9Z"/><path class="cls-3" d="M1024.59,878.47l.38.13Z"/><path class="cls-3" d="M1023.4,878.08l.4.12Z"/><path class="cls-3" d="M1017.66,877.11l.68.06Z"/><path class="cls-3" d="M752.26,711c.74-.5,1.51-1,2.3-1.44C753.77,710,753,710.51,752.26,711Z"/><path class="cls-3" d="M1025.53,878.82l.15.06Z"/><path class="cls-3" d="M1010.7,877.29l.6-.06Z"/><path class="cls-3" d="M1011.32,877.23l.55-.05Z"/><path class="cls-3" d="M1021.54,877.62l-.16,0h0Z"/><path class="cls-3" d="M1012.53,877.13l.7,0Z"/><path class="cls-3" d="M750.16,712.53c.56-.43,1.13-.86,1.72-1.27C751.29,711.67,750.72,712.1,750.16,712.53Z"/><path class="cls-3" d="M741.12,723.22c.21-.38.42-.76.65-1.12C741.54,722.46,741.33,722.84,741.12,723.22Z"/><path class="cls-3" d="M739.64,726.16c.35-.78.72-1.53,1.11-2.27C740.36,724.63,740,725.38,739.64,726.16Z"/><path class="cls-3" d="M747.14,715.22c.25-.26.52-.51.79-.76C747.66,714.71,747.39,715,747.14,715.22Z"/><path class="cls-3" d="M742.21,721.38c.22-.35.45-.7.69-1C742.66,720.68,742.43,721,742.21,721.38Z"/><path class="cls-3" d="M743.38,719.63c.2-.28.41-.55.62-.82C743.79,719.08,743.58,719.35,743.38,719.63Z"/><path class="cls-3" d="M745.8,716.63c.24-.27.48-.53.73-.79C746.28,716.1,746,716.36,745.8,716.63Z"/><path class="cls-3" d="M744.55,718.09l.66-.79Z"/><path class="cls-4" d="M1021.33,726.37l.6,0,.54-.05.65,0,.69,0,1,0h2.36l.36,0,.65,0,.69,0,.7.07.28,0,.54.08.83.13.57.1.21,0,.66.16.41.09-84.25-45.83c-.32-.09-.64-.18-1-.25l-.39-.09c-.63-.12-1.28-.22-1.94-.3l-.46,0c-.55-.06-1.12-.11-1.69-.14l-.54,0c-.71,0-1.44,0-2.19,0h-.36c-.65,0-1.31.06-2,.12l-.64.05c-.81.07-1.62.16-2.46.28l84.34,45.88C1020.11,726.51,1020.72,726.44,1021.33,726.37Z"/><path class="cls-5" d="M1033.15,727l.6.16.39.13.77.25.34.13.54.2.07,0c.33.13.64.28,1,.43l.13,0L953,682.73c-.31-.16-.62-.31-1-.45s-.63-.28-1-.41l-.94-.34-1-.32-.35-.08L1033,727Z"/><path class="cls-6" d="M1037,728.42l.13.06.5.26L953.3,682.87l-.29-.14,83.93,45.65Z"/><path class="cls-7" d="M831.56,1109.28c-.14-.1-.29-.19-.42-.29-.31-.23-.61-.47-.9-.71l-.41-.32c-.42-.36-.84-.73-1.24-1.12q-9.66-9.36-9.63-29.76l-84.33-45.88q0,20.41,9.63,29.76a24.13,24.13,0,0,0,5.34,3.93l84.33,45.88c-.29-.16-.57-.34-.85-.51l-.58-.33C832.18,1109.72,831.87,1109.5,831.56,1109.28Z"/><polygon class="cls-8" points="1019.48 726.6 935.14 680.72 773.51 703.44 857.84 749.31 1019.48 726.6"/><polygon class="cls-9" points="819.38 854.06 808.21 847.98 819.39 846.41 819.49 796.01 735.15 750.13 734.63 1031.2 818.96 1077.08 819.38 854.06"/><polygon class="cls-9" points="819.38 854.06 819.39 846.41 808.21 847.98 819.38 854.06"/><path class="cls-7" d="M819.54,793.23c0-.29,0-.58,0-.88,0-.61.06-1.23.1-1.83,0-.33.05-.66.08-1,0-.56.1-1.11.16-1.65,0-.33.07-.66.11-1,.06-.54.14-1.07.22-1.6,0-.31.08-.62.13-.93.1-.57.2-1.14.31-1.7,0-.24.09-.48.14-.72.16-.79.34-1.56.53-2.33l.09-.34c.17-.64.35-1.28.54-1.9.07-.25.16-.5.24-.75.15-.48.31-1,.47-1.42l.12-.33L738.49,729l-.12.32c-.17.47-.33.95-.48,1.43l-.24.74c-.19.63-.37,1.26-.53,1.91,0,.11-.07.22-.1.33-.19.77-.37,1.55-.53,2.34,0,.23-.09.47-.13.7-.11.57-.22,1.14-.31,1.72,0,.3-.09.61-.14.92-.08.53-.15,1.06-.22,1.6,0,.33-.07.66-.11,1q-.09.82-.15,1.65c0,.33-.06.66-.08,1-.05.6-.08,1.21-.1,1.82,0,.3,0,.59,0,.88,0,.92-.05,1.84-.05,2.79L819.49,796C819.49,795.07,819.51,794.15,819.54,793.23Z"/><path class="cls-10" d="M823,774.51c.26-.7.54-1.38.83-2,.06-.15.12-.29.19-.44.35-.77.72-1.53,1.11-2.26l.09-.2L740.86,723.7l-.11.19c-.39.74-.76,1.49-1.11,2.27-.06.14-.12.29-.19.43-.29.67-.56,1.35-.82,2,0,.12-.09.24-.14.37l84.33,45.87C822.86,774.74,822.92,774.63,823,774.51Z"/><path class="cls-11" d="M825.46,769.09c.21-.38.42-.75.64-1.12l.44-.71q.33-.53.69-1l.26-.39-84.32-45.88c-.09.13-.19.26-.27.4-.24.34-.47.69-.69,1s-.3.48-.44.72-.44.74-.65,1.12c-.09.16-.18.31-.26.48l84.32,45.87Z"/><path class="cls-12" d="M827.72,765.51l.61-.83c.19-.24.37-.48.56-.71s.43-.53.66-.79.24-.31.37-.45L745.6,716.86l-.39.44-.66.79-.55.72c-.21.27-.42.54-.62.82l-.21.31,84.32,45.88A3.55,3.55,0,0,1,827.72,765.51Z"/><path class="cls-13" d="M830.13,762.51c.24-.27.49-.53.74-.79l.6-.62.79-.76.47-.45L748.41,714l-.48.44c-.27.25-.54.5-.79.76s-.41.41-.61.62-.49.52-.73.79c-.07.07-.13.15-.2.23l84.32,45.87Z"/><path class="cls-6" d="M832.88,759.77c.5-.44,1-.87,1.54-1.29l.08-.07c.55-.44,1.13-.86,1.72-1.27l.13-.1L752,711.17l-.14.09c-.59.41-1.16.84-1.72,1.27l-.07.06c-.53.42-1.05.86-1.55,1.31l-.13.12,84.32,45.87Z"/><path class="cls-5" d="M836.6,756.89c.74-.51,1.5-1,2.3-1.45l.29-.17c.83-.48,1.7-.92,2.59-1.35.1,0,.18-.09.28-.14l-84.32-45.87-.29.14c-.89.42-1.76.87-2.6,1.34l-.29.18c-.79.45-1.56.94-2.3,1.44l-.24.16L836.35,757Z"/><path class="cls-4" d="M842.52,753.58l.82-.37,1-.42.85-.33,1.06-.39.87-.3,1.12-.35c.29-.1.58-.19.88-.27s.79-.22,1.19-.33l.88-.23,1.29-.3.85-.19,1.48-.29.73-.14q1.13-.2,2.28-.36l-84.33-45.87q-1.15.16-2.28.36l-.73.14-1.48.28-.85.19-1.29.3-.88.23-1.19.33-.89.27-1.12.35-.86.3-1.07.39-.84.33-1,.43-.81.36-.45.21,84.32,45.87Z"/><path class="cls-14" d="M1019.48,726.6c.84-.12,1.65-.21,2.45-.28l-.6,0C1020.72,726.44,1020.11,726.51,1019.48,726.6Z"/><path class="cls-14" d="M1021.35,877.58l-.57-.1-.88-.14-.4-.05C1020.13,877.37,1020.75,877.47,1021.35,877.58Z"/><path class="cls-14" d="M1018.91,877.22l-.57-.05-.68-.06-.47,0C1017.77,877.12,1018.35,877.16,1018.91,877.22Z"/><path class="cls-14" d="M1016.57,877.06l-.56,0h-1.46C1015.24,877,1015.92,877,1016.57,877.06Z"/><path class="cls-14" d="M1014,877.06l-.79,0-.7,0-.55,0Q1013,877.09,1014,877.06Z"/><path class="cls-14" d="M1032.61,726.87l-.47-.11c.45.1.88.21,1.31.33l-.3-.09Z"/><path class="cls-14" d="M1034.91,727.54l-.42-.13c.32.11.64.22.94.34a1,1,0,0,0-.18-.08Z"/><path class="cls-14" d="M1037,728.42l-.19-.09c-.13-.06-.28-.11-.41-.18.35.16.71.32,1,.5l-.31-.17Z"/><path class="cls-14" d="M1023.14,878l-.35-.11-.53-.12-.49-.11C1022.24,877.78,1022.69,877.89,1023.14,878Z"/><path class="cls-14" d="M1025.15,878.68l-.18-.08-.38-.13-.4-.13C1024.52,878.45,1024.84,878.56,1025.15,878.68Z"/><path class="cls-14" d="M1030.34,726.44l-.43-.06c.6.08,1.17.17,1.74.28l-.48-.09Z"/><path class="cls-14" d="M1025.56,726.13h-.49c.67,0,1.33,0,2,0h-1.48Z"/><path class="cls-14" d="M1026.13,879.1c.36.16.72.32,1.06.5-.17-.09-.34-.19-.52-.27S1026.31,879.18,1026.13,879.1Z"/><path class="cls-14" d="M1023.12,726.22l-.55,0c.68-.06,1.35-.1,2-.12l-.76,0Z"/><path class="cls-15" d="M1008.8,877.52c.86-.12,1.7-.21,2.52-.29h0l.55-.05h.11q1-.09,2-.12h.53c.69,0,1.37,0,2,0h.42l.2,0c.58,0,1.16.07,1.72.13l.16,0,.43,0c.63.08,1.25.18,1.85.29l.19,0a2,2,0,0,1,.23.06c.47.1.92.21,1.37.34l.26.06.4.12.39.14c.33.11.65.22,1,.34l.38.14.15.06.45.22c.36.16.72.32,1.06.5q10.89,5.74,10.86,24.41-.06,31.13-29.36,35.23L892.43,955.58l-.21,111.21q-.08,41.84-36,46.87-14.15,2-23.14-3.4l-.58-.33c-.32-.21-.63-.43-.94-.65-.14-.1-.29-.19-.42-.29-.31-.23-.61-.47-.9-.71l-.41-.32c-.42-.36-.84-.73-1.24-1.12q-9.66-9.36-9.63-29.76L819.49,796c0-.94,0-1.86,0-2.78,0-.29,0-.58,0-.88,0-.61.06-1.23.1-1.83,0-.33.05-.66.08-1,0-.56.1-1.11.16-1.65,0-.33.07-.66.11-1,.06-.54.14-1.07.22-1.6,0-.31.08-.62.13-.93.1-.57.2-1.14.31-1.7,0-.24.09-.48.14-.72.16-.79.34-1.56.53-2.33l.09-.34c.17-.64.35-1.28.54-1.9.07-.25.16-.5.24-.75.15-.48.31-1,.47-1.42.09-.23.18-.46.26-.69.26-.7.54-1.38.83-2,.06-.15.12-.29.19-.44.35-.77.72-1.53,1.11-2.26l.37-.68c.21-.38.42-.75.64-1.12l.44-.71q.33-.53.69-1c.16-.23.32-.47.49-.7l.61-.83c.19-.24.37-.48.56-.71s.43-.53.66-.79.38-.45.58-.67.49-.53.74-.79l.6-.62.79-.76.62-.57c.5-.44,1-.87,1.54-1.29l.08-.07c.55-.44,1.13-.86,1.72-1.27l.38-.25c.74-.51,1.5-1,2.3-1.45l.29-.17c.83-.48,1.7-.92,2.59-1.35l.74-.34.82-.37,1-.42.85-.33,1.06-.39.87-.3,1.12-.35c.29-.1.58-.19.88-.27s.79-.22,1.19-.33l.88-.23,1.29-.3.85-.19,1.48-.29.73-.14q1.13-.2,2.28-.36l161.64-22.71c.84-.12,1.65-.21,2.45-.28l.54-.05h.1c.68-.06,1.35-.1,2-.12h.5c.67,0,1.33,0,2,0l.44,0h.17c.58,0,1.14.08,1.69.14h.18l.39,0c.6.08,1.17.17,1.74.28l.3.05.19,0c.45.1.88.21,1.31.33l.3.07.39.13c.12,0,.23.08.35.12.32.11.64.22.94.34l.36.12.07,0,.54.25c.35.16.71.32,1,.5q10.85,5.75,10.81,24.5-.06,31.13-28.89,35.17L892.7,806.12l-.05,30-.08,43.58,0,14.16,116.26-16.34"/><path class="cls-14" d="M1011.3,877.23l-.6.06c-.62.06-1.25.14-1.9.23.86-.12,1.7-.21,2.52-.29Z"/><path class="cls-14" d="M1028.13,726.21l-.48,0c.58,0,1.14.08,1.69.14l-.52-.06Z"/><path class="cls-14" d="M1019.9,877.34l.88.14Z"/><path class="cls-14" d="M1012.53,877.13l-.66,0h.11Z"/><path class="cls-14" d="M1022.26,877.79l-.72-.17a2,2,0,0,1,.23.06Z"/><path class="cls-14" d="M1011.32,877.23h0Z"/><path class="cls-14" d="M1015,877h0Z"/><path class="cls-14" d="M1008.8,877.52c.65-.09,1.28-.17,1.9-.23C1010.08,877.35,1009.45,877.43,1008.8,877.52Z"/><path class="cls-14" d="M1014.21,877.05l-1,.05.79,0Z"/><path class="cls-14" d="M1017.66,877.11l-.67,0,.2,0Z"/><path class="cls-14" d="M1019.07,877.24l-.73-.07.57.05Z"/><path class="cls-14" d="M1023.4,878.08l-.61-.17.35.11Z"/><path class="cls-14" d="M1026.67,879.33c-.32-.16-.65-.3-1-.45l.45.22C1026.31,879.18,1026.5,879.24,1026.67,879.33Z"/><path class="cls-14" d="M1025.53,878.82l-.56-.22.18.08Z"/><path class="cls-14" d="M1024.59,878.47c-.26-.1-.52-.18-.79-.27l.39.14Z"/><path class="cls-14" d="M1027.48,726.17h.17l.48,0Z"/><path class="cls-14" d="M1032,726.71l.19,0,.47.11Z"/><path class="cls-14" d="M1029.34,726.32h.18l-.7-.07Z"/><path class="cls-14" d="M1030.34,726.44l.83.13Z"/><path class="cls-14" d="M1022.47,726.27h.1l.55,0Z"/><path class="cls-14" d="M1019.48,726.6c.63-.09,1.24-.16,1.85-.23C1020.72,726.44,1020.11,726.51,1019.48,726.6Z"/><path class="cls-14" d="M1024.57,726.15h.19l-1,0Z"/><path class="cls-14" d="M1025.56,726.13h0Z"/><path class="cls-14" d="M1034.14,727.29c.12,0,.23.08.35.12l.42.13Z"/><path class="cls-14" d="M1035.86,727.9l.54.25c.13.07.28.12.41.18C1036.5,728.18,1036.19,728,1035.86,727.9Z"/><path class="cls-14" d="M1033.45,727.09l.3.07-.6-.16Z"/><path class="cls-14" d="M1035.43,727.75l.36.12-.54-.2A1,1,0,0,1,1035.43,727.75Z"/><path class="cls-14" d="M1037,728.42l.13.06Z"/><path class="cls-14" d="M829.83,1108l.41.32Z"/><path class="cls-14" d="M831.14,1109c.13.1.28.19.42.29C831.42,1109.18,831.27,1109.09,831.14,1109Z"/><path class="cls-14" d="M833.08,1110.26l-.58-.33Z"/><path class="cls-15" d="M893.08,836c15.3-2.21,27.09-3.86,33.07-4.7a33.31,33.31,0,0,1,4.93-.3,21.44,21.44,0,0,1,7,1,16.59,16.59,0,0,1,4,2c3.54,2.34,33.9,18.8,79,43l-3.42.11-5.68.07-10.39,1.35L893.08,893.86Z"/></g></svg>