<svg xmlns="http://www.w3.org/2000/svg" viewBox="0 0 1920 1847"><defs><style>.cls-1,.cls-2,.cls-3{fill:none;}.cls-1,.cls-15,.cls-16,.cls-2{stroke:#38c6de;stroke-miterlimit:10;}.cls-1{stroke-width:2px;}.cls-2{stroke-width:3px;}.cls-4{fill:#2d3077;}.cls-5{fill:#2c2e73;}.cls-6{fill:#2a2d70;}.cls-7{fill:#23255e;}.cls-8{fill:#30337f;}.cls-9{fill:#23255c;}.cls-10{fill:#252761;}.cls-11{fill:#262865;}.cls-12{fill:#272a68;}.cls-13{fill:#292b6c;}.cls-14{fill:#3b3f9d;}.cls-15,.cls-16{fill:#03022c;}.cls-15{stroke-width:4px;}</style></defs><g id="LOGOTIPO_ELEGIDO_FE" data-name="LOGOTIPO ELEGIDO FE"><circle class="cls-1" cx="652.57" cy="521.44" r="5.99"/><line class="cls-2" x1="650.27" y1="656.92" x2="652.26" y2="528.78"/><circle class="cls-2" cx="621.69" cy="548.47" r="9.51"/><polyline class="cls-2" points="621.43 559 622.72 841.68 574.15 889.08 574.15 1300.73"/><line class="cls-2" x1="667.18" y1="703.2" x2="669.17" y2="575.06"/><circle class="cls-1" cx="669.48" cy="567.72" r="5.99"/><circle class="cls-2" cx="762.74" cy="530.46" r="5.93"/><polyline class="cls-2" points="761.58 537.03 762.13 596.7 741.3 606.71 741.3 693.6"/><line class="cls-2" x1="717.83" y1="664.78" x2="719.82" y2="536.63"/><circle class="cls-1" cx="720.13" cy="529.3" r="5.99"/><circle class="cls-1" cx="996.44" cy="499.91" r="6.11"/><line class="cls-2" x1="993.83" y1="621.39" x2="995.11" y2="503.79"/><circle class="cls-1" cx="975.57" cy="533.19" r="6.11"/><line class="cls-2" x1="973.31" y1="657.77" x2="974.6" y2="540.17"/><circle class="cls-1" cx="1191.77" cy="634.73" r="7.05"/><polyline class="cls-2" points="1192.12 641.28 1192.92 790.09 1162.61 815.05 1162.61 1031.76"/><circle class="cls-1" cx="1176.1" cy="843.52" r="6.11"/><line class="cls-2" x1="1173.85" y1="1082.41" x2="1175.13" y2="850.5"/><circle class="cls-1" cx="1164.39" cy="605.58" r="6.11"/><line class="cls-2" x1="1162.14" y1="730.16" x2="1163.42" y2="612.56"/><circle class="cls-1" cx="848.44" cy="424.99" r="5.99"/><line class="cls-2" x1="846.13" y1="621.3" x2="848.12" y2="432.33"/><circle class="cls-1" cx="821.05" cy="452.02" r="9.51"/><polyline class="cls-2" points="820.79 462.56 822.08 745.23 773.51 792.64 773.51 1204.29"/><circle class="cls-1" cx="881.07" cy="469.53" r="5.99"/><circle class="cls-2" cx="958.6" cy="434.01" r="5.93"/><polyline class="cls-2" points="957.44 440.59 958 500.26 937.17 510.26 937.17 597.15"/><line class="cls-2" x1="913.7" y1="616.06" x2="915.68" y2="440.18"/><circle class="cls-1" cx="916" cy="432.85" r="5.99"/><line class="cls-2" x1="878.51" y1="602.37" x2="880.5" y2="474.22"/><circle class="cls-1" cx="1143.43" cy="542.8" r="6.11"/><line class="cls-2" x1="1141.18" y1="667.38" x2="1142.46" y2="549.78"/><path class="cls-3" d="M823,710.5c-.63.22-1.25.45-1.86.68C821.74,711,822.36,710.72,823,710.5Z"/><path class="cls-3" d="M819.65,711.76l-1.78.74Z"/><path class="cls-3" d="M830.08,708.32c-.7.19-1.39.37-2.08.57C828.69,708.69,829.38,708.51,830.08,708.32Z"/><path class="cls-3" d="M826.46,709.36c-.66.2-1.31.4-2,.62C825.15,709.76,825.8,709.56,826.46,709.36Z"/><path class="cls-3" d="M792.63,731.29c-.33.41-.65.82-1,1.24C792,732.11,792.3,731.7,792.63,731.29Z"/><path class="cls-3" d="M810.62,716.09l-.51.3Z"/><path class="cls-3" d="M802.42,721.58l-.14.11Z"/><path class="cls-3" d="M788.53,737c-.26.41-.52.82-.77,1.24C788,737.86,788.27,737.45,788.53,737Z"/><path class="cls-3" d="M833.88,707.39c-.76.17-1.52.34-2.26.53C832.36,707.73,833.12,707.56,833.88,707.39Z"/><path class="cls-3" d="M663.31,636q2.21-1.25,4.54-2.35Q665.51,634.72,663.31,636Z"/><path class="cls-3" d="M843.2,705.69c-1.35.19-2.67.4-4,.63C840.53,706.09,841.85,705.88,843.2,705.69Z"/><path class="cls-3" d="M815.15,713.74l1.29-.61-.81.36Z"/><path class="cls-3" d="M837.94,706.56c-.87.16-1.73.32-2.58.5C836.21,706.88,837.07,706.72,837.94,706.56Z"/><path class="cls-3" d="M669.15,633l1.41-.63Z"/><path class="cls-3" d="M778.55,762.68c-.09.41-.16.83-.24,1.24C778.39,763.51,778.46,763.09,778.55,762.68Z"/><path class="cls-3" d="M786,741.41c.21-.4.43-.79.64-1.18-.15.28-.32.55-.47.83C786.1,741.18,786.05,741.3,786,741.41Z"/><path class="cls-3" d="M776.37,780.86c0,.51-.06,1-.07,1.54C776.31,781.88,776.35,781.37,776.37,780.86Z"/><path class="cls-3" d="M781.83,750.9c.14-.41.3-.81.45-1.21-.08.21-.18.42-.26.63S781.89,750.71,781.83,750.9Z"/><path class="cls-3" d="M789.73,735.2c.28-.41.56-.82.85-1.22-.13.18-.27.35-.39.53S789.89,735,789.73,735.2Z"/><path class="cls-3" d="M798.52,725c.36-.33.71-.67,1.07-1-.08.07-.17.13-.24.2C799.06,724.42,798.8,724.69,798.52,725Z"/><path class="cls-3" d="M796.08,727.35c.35-.36.7-.73,1.06-1.08C796.78,726.62,796.43,727,796.08,727.35Z"/><path class="cls-3" d="M793.77,729.91c.34-.4.68-.8,1-1.18-.12.13-.25.25-.36.39S794,729.65,793.77,729.91Z"/><path class="cls-3" d="M777.77,766.91l-.24,1.62Z"/><path class="cls-3" d="M779.64,758c0,.21-.11.4-.16.61C779.53,758.4,779.59,758.21,779.64,758Z"/><path class="cls-3" d="M781,753.38c-.14.44-.29.87-.42,1.31C780.7,754.25,780.85,753.82,781,753.38Z"/><path class="cls-3" d="M805.43,719.36l.66-.44c-.14.09-.29.17-.43.27Z"/><path class="cls-3" d="M777.15,771.31c-.07.58-.13,1.16-.2,1.74C777,772.47,777.08,771.89,777.15,771.31Z"/><path class="cls-3" d="M776.68,775.92c0,.58-.09,1.16-.13,1.74C776.59,777.08,776.64,776.5,776.68,775.92Z"/><path class="cls-3" d="M784.05,745.37c-.12.25-.22.51-.33.76C783.83,745.88,783.93,745.62,784.05,745.37Z"/><path class="cls-3" d="M1156.89,669.6c.11.06.23.1.33.16h0c-.28-.16-.58-.31-.87-.45C1156.54,669.4,1156.71,669.5,1156.89,669.6Z"/><path class="cls-3" d="M1138.73,665.23l.77,0-.64,0Z"/><path class="cls-3" d="M1137.81,665.2l.92,0h.13Z"/><path class="cls-3" d="M1006.08,587.88c.57.23,1.13.47,1.69.72C1007.21,588.35,1006.65,588.11,1006.08,587.88Z"/><path class="cls-3" d="M1002.62,586.74c.62.17,1.23.36,1.82.56C1003.84,587.1,1003.24,586.91,1002.62,586.74Z"/><path class="cls-3" d="M995.44,585.39l.81.08Z"/><path class="cls-3" d="M999.63,586l.7.16Z"/><path class="cls-3" d="M1140.63,665.33c.4,0,.8.06,1.19.09C1141.43,665.39,1141,665.35,1140.63,665.33Z"/><path class="cls-3" d="M1131.88,665.35l1.2-.06Z"/><path class="cls-3" d="M1151.12,667.21l-.69-.21Z"/><path class="cls-3" d="M1154.13,668.28l-.12,0Z"/><path class="cls-3" d="M1128.75,665.62l1-.1h0Z"/><path class="cls-3" d="M1143.05,665.54l.69.09-.19,0Z"/><path class="cls-3" d="M1134.75,665.21h0Z"/><path class="cls-3" d="M1135,665.21h0Z"/><path class="cls-3" d="M686.58,627.26c.49-.11,1-.23,1.48-.33C687.56,627,687.07,627.15,686.58,627.26Z"/><path class="cls-3" d="M1143.55,665.6l.19,0,.75.1Z"/><path class="cls-3" d="M690.64,626.43c.43-.08.85-.17,1.28-.24C691.49,626.26,691.07,626.35,690.64,626.43Z"/><path class="cls-3" d="M1152.48,667.66l.59.22Z"/><path class="cls-3" d="M1156,669.13l-.22-.09c.11.05.22.09.33.15Z"/><path class="cls-3" d="M672.35,631.63l1.47-.58Z"/><path class="cls-3" d="M679.16,629.23l1.54-.47Z"/><path class="cls-3" d="M675.69,630.37l1.51-.52Z"/><path class="cls-3" d="M682.78,628.19c.51-.13,1-.28,1.54-.4C683.8,627.91,683.29,628.06,682.78,628.19Z"/><path class="cls-3" d="M1149.16,666.64l-.71-.16.94.23Z"/><path class="cls-3" d="M991.55,585.11l.94,0Z"/><path class="cls-3" d="M1145.94,666l.83.16.16,0Z"/><path class="cls-3" d="M987.11,585.1l.62,0Z"/><path class="cls-3" d="M982.5,585.39l1.11-.09Z"/><path class="cls-3" d="M1146.77,666.12l.52.09-.36-.07Z"/><path class="cls-3" d="M1126.26,929.3l-.89-.12.18,0Z"/><path class="cls-3" d="M629.38,695.79c.08-1,.17-1.92.27-2.87C629.55,693.87,629.46,694.83,629.38,695.79Z"/><path class="cls-3" d="M1128.84,929.73l-1-.18c.33.06.67.11,1,.18Z"/><path class="cls-3" d="M1120.56,928.81l-1.11,0,1,0Z"/><path class="cls-3" d="M631.25,682.55c.28-1.38.59-2.74.93-4.07C631.84,679.81,631.53,681.17,631.25,682.55Z"/><path class="cls-3" d="M630.47,686.78q.25-1.51.54-3Q630.73,685.27,630.47,686.78Z"/><path class="cls-3" d="M629.85,691.18c.12-.94.24-1.87.38-2.79C630.09,689.31,630,690.24,629.85,691.18Z"/><path class="cls-3" d="M1117.72,928.78h0Z"/><path class="cls-3" d="M1125.55,929.21l-.18,0-.57-.06Z"/><path class="cls-3" d="M635,669.56c.45-1.21.93-2.4,1.44-3.56C635.91,667.16,635.43,668.35,635,669.56Z"/><path class="cls-3" d="M1129.8,665.52l1-.08-1,.08Z"/><path class="cls-3" d="M1121.16,928.83l-.6,0h-.12Z"/><path class="cls-3" d="M632.34,677.89q.43-1.7.93-3.33Q632.78,676.2,632.34,677.89Z"/><path class="cls-3" d="M633.69,673.26c.27-.84.54-1.67.84-2.49C634.23,671.59,634,672.42,633.69,673.26Z"/><path class="cls-3" d="M1116.92,928.79h0Z"/><path class="cls-3" d="M1138.08,932.77c.31.15.6.32.9.48l.36.17-1.24-.64Z"/><path class="cls-3" d="M973.26,848.68l1,.05Z"/><path class="cls-3" d="M968.67,848.68l.67,0Z"/><path class="cls-3" d="M977.23,849l.84.08Z"/><path class="cls-3" d="M964,849l1.16-.09Z"/><path class="cls-3" d="M981.53,849.6l.69.16Z"/><path class="cls-3" d="M809.91,1325.2c.51.42,1,.84,1.56,1.24C810.94,1326,810.42,1325.62,809.91,1325.2Z"/><path class="cls-3" d="M988.13,851.52c.58.22,1.15.47,1.71.72C989.28,852,988.71,851.74,988.13,851.52Z"/><path class="cls-3" d="M628.9,707.12c0-1.64,0-3.26.1-4.85C628.94,703.86,628.91,705.48,628.9,707.12Z"/><path class="cls-3" d="M984.6,850.35c.63.18,1.24.37,1.85.57C985.84,850.72,985.23,850.53,984.6,850.35Z"/><path class="cls-3" d="M629.07,700.73c0-1.08.1-2.14.18-3.2C629.17,698.59,629.12,699.65,629.07,700.73Z"/><path class="cls-3" d="M812.21,1326.94c.55.39,1.09.78,1.66,1.13C813.3,1327.72,812.76,1327.33,812.21,1326.94Z"/><path class="cls-3" d="M807,1322.68c.7.68,1.42,1.33,2.17,2C808.45,1324,807.73,1323.36,807,1322.68Z"/><path class="cls-3" d="M1131.14,930.25c-.25-.07-.51-.11-.76-.17l.92.22Z"/><path class="cls-3" d="M652.29,643.83c.88-.78,1.78-1.55,2.71-2.28C654.07,642.28,653.17,643.05,652.29,643.83Z"/><path class="cls-3" d="M1134.45,931.27c.22.07.43.16.65.24C1134.88,931.43,1134.67,931.34,1134.45,931.27Z"/><path class="cls-3" d="M1132.36,930.6l.71.21Z"/><path class="cls-3" d="M1122.33,928.9l1.2.1Z"/><path class="cls-3" d="M658.79,638.79c1.3-.88,2.63-1.73,4-2.53C661.42,637.06,660.09,637.91,658.79,638.79Z"/><path class="cls-3" d="M1136.09,931.88l.26.12Z"/><path class="cls-3" d="M1110.18,929.21l1-.09Z"/><path class="cls-3" d="M1111.27,929.11l1-.08Z"/><path class="cls-3" d="M1129.12,929.79l-.28-.06h-.06C1128.89,929.75,1129,929.76,1129.12,929.79Z"/><path class="cls-3" d="M1113.38,928.94l1.21-.07Z"/><path class="cls-3" d="M655.12,641.45c1-.77,2-1.5,3-2.22C657.1,640,656.09,640.68,655.12,641.45Z"/><path class="cls-3" d="M639.33,660.1c.37-.66.74-1.31,1.13-2C640.07,658.79,639.7,659.44,639.33,660.1Z"/><path class="cls-3" d="M636.75,665.24c.61-1.36,1.26-2.67,1.94-4C638,662.57,637.36,663.88,636.75,665.24Z"/><path class="cls-3" d="M649.84,646.14c.45-.45.92-.89,1.38-1.32C650.76,645.25,650.29,645.69,649.84,646.14Z"/><path class="cls-3" d="M641.23,656.9q.59-.92,1.2-1.83Q641.82,656,641.23,656.9Z"/><path class="cls-3" d="M643.28,653.85c.35-.49.71-1,1.08-1.45C644,652.88,643.63,653.36,643.28,653.85Z"/><path class="cls-3" d="M647.5,648.6c.42-.47.85-.92,1.28-1.37C648.35,647.68,647.92,648.13,647.5,648.6Z"/><path class="cls-3" d="M645.33,651.15c.37-.46.76-.92,1.14-1.37C646.09,650.23,645.7,650.69,645.33,651.15Z"/><path class="cls-4" d="M1128.75,665.62l1-.1,1-.08c.37,0,.75-.07,1.13-.09l1.2-.06,1.67-.08h3.06l1,0,.64,0,1.13.07c.4,0,.8.06,1.19.09l1.23.12.5.06.94.13,1.45.23,1,.18.36.07c.39.08.77.18,1.16.27l.71.16-147.15-80c-.56-.15-1.11-.3-1.68-.42l-.7-.16c-1.09-.22-2.22-.4-3.38-.54l-.81-.08c-1-.11-2-.18-3-.24l-.94,0c-1.24-.05-2.51-.06-3.82,0l-.62,0c-1.14,0-2.31.11-3.5.2l-1.11.09c-1.4.13-2.82.29-4.29.49L1125.51,666Q1127.16,665.79,1128.75,665.62Z"/><path class="cls-5" d="M1149.39,666.71c.36.09.7.19,1,.29l.69.21c.46.15.91.29,1.36.45l.59.22c.31.12.63.23.94.36l.12,0c.57.24,1.12.5,1.66.76l.22.09-146.59-79.74c-.53-.28-1.09-.54-1.65-.79s-1.12-.49-1.69-.72l-1.64-.58c-.59-.2-1.2-.39-1.82-.56l-.61-.15,147.15,80Z"/><path class="cls-6" d="M1156.12,669.19a2.53,2.53,0,0,1,.23.12c.29.14.59.29.87.45l-147.3-80.13c-.16-.09-.33-.16-.5-.24L1156,669.13Z"/><path class="cls-7" d="M797.29,1334.4c-.25-.17-.5-.32-.74-.5-.54-.39-1-.82-1.57-1.24-.23-.19-.48-.36-.71-.56-.74-.62-1.46-1.28-2.16-2q-16.89-16.34-16.82-52L628,1198q-.06,35.65,16.82,52a42.88,42.88,0,0,0,9.33,6.87L801.44,1337c-.51-.28-1-.59-1.49-.88-.33-.2-.68-.38-1-.59C798.38,1335.18,797.83,1334.79,797.29,1334.4Z"/><polygon class="cls-8" points="1125.52 666.01 978.21 585.88 695.9 625.56 843.2 705.69 1125.52 666.01"/><polygon class="cls-9" points="776.02 888.64 756.5 878.02 776.04 875.28 776.2 787.25 628.9 707.12 627.99 1198.04 775.29 1278.17 776.02 888.64"/><polygon class="cls-9" points="776.02 888.64 776.04 875.28 756.5 878.02 776.02 888.64"/><path class="cls-7" d="M776.3,782.4c0-.52.05-1,.07-1.54,0-1.08.1-2.14.18-3.2,0-.58.09-1.16.13-1.74.08-1,.17-1.92.27-2.87.07-.58.13-1.16.2-1.74.12-.94.25-1.87.38-2.78l.24-1.62c.17-1,.35-2,.54-3,.08-.41.15-.83.24-1.24.28-1.38.59-2.74.93-4.07,0-.21.11-.4.16-.61.29-1.12.6-2.22.93-3.31.13-.44.28-.87.42-1.31.27-.83.55-1.66.84-2.48.06-.19.12-.39.19-.58L634.74,670.2c-.07.19-.15.38-.21.57-.3.82-.57,1.65-.84,2.49-.14.43-.29.86-.42,1.3q-.49,1.63-.93,3.33c-.05.2-.11.39-.16.59-.34,1.33-.65,2.69-.93,4.07-.09.41-.16.82-.24,1.23q-.28,1.49-.54,3l-.24,1.61c-.14.92-.26,1.85-.38,2.79-.07.58-.13,1.16-.2,1.74-.1,1-.19,1.91-.27,2.87,0,.58-.09,1.16-.13,1.74-.08,1.06-.13,2.12-.18,3.2,0,.51-.06,1-.07,1.54-.06,1.59-.09,3.21-.1,4.85l147.3,80.13C776.21,785.61,776.24,784,776.3,782.4Z"/><path class="cls-10" d="M782.28,749.69c.45-1.21.93-2.4,1.44-3.56.11-.25.21-.51.33-.76.61-1.36,1.26-2.67,1.94-4,.06-.11.11-.23.17-.35L638.87,660.94l-.18.34c-.68,1.29-1.33,2.6-1.94,4-.12.25-.22.51-.33.76-.51,1.16-1,2.35-1.44,3.56l-.24.64L782,750.32C782.1,750.11,782.2,749.9,782.28,749.69Z"/><path class="cls-11" d="M786.63,740.23c.37-.66.74-1.31,1.13-2,.25-.42.51-.83.77-1.24.39-.62.79-1.23,1.2-1.84.16-.22.3-.46.46-.69L642.9,654.39l-.47.68q-.61.91-1.2,1.83c-.26.42-.52.83-.77,1.25-.39.64-.76,1.29-1.13,2l-.46.84,147.29,80.12C786.31,740.78,786.48,740.51,786.63,740.23Z"/><path class="cls-12" d="M790.58,734c.35-.49.71-1,1.08-1.45s.64-.83,1-1.24.76-.93,1.14-1.38c.23-.26.44-.54.67-.79L647.15,649c-.23.25-.45.52-.68.78-.38.45-.77.91-1.14,1.37s-.65.83-1,1.25-.73,1-1.08,1.45l-.38.54,147.29,80.12C790.31,734.33,790.45,734.16,790.58,734Z"/><path class="cls-13" d="M794.8,728.73c.42-.47.85-.92,1.28-1.38s.7-.73,1.06-1.08.92-.89,1.38-1.32c.28-.26.54-.53.83-.79L652.06,644l-.84.78c-.46.43-.93.87-1.38,1.32s-.71.72-1.06,1.09-.86.9-1.28,1.37l-.35.4,147.29,80.12C794.55,729,794.68,728.86,794.8,728.73Z"/><path class="cls-6" d="M799.59,724c.88-.78,1.77-1.54,2.69-2.27l.14-.11c1-.77,2-1.51,3-2.22l.23-.17L658.37,639.06l-.25.17c-1,.72-2,1.45-3,2.22l-.12.1c-.93.73-1.83,1.5-2.71,2.28l-.23.21,147.29,80.12C799.42,724.09,799.51,724,799.59,724Z"/><path class="cls-5" d="M806.09,718.92c1.3-.88,2.63-1.73,4-2.53l.51-.3c1.46-.83,3-1.61,4.53-2.35l.48-.25L668.35,633.37l-.5.24q-2.34,1.11-4.54,2.35l-.5.3c-1.39.8-2.72,1.65-4,2.53l-.42.27,147.29,80.13C805.8,719.09,806,719,806.09,718.92Z"/><path class="cls-4" d="M816.44,713.13l1.43-.63,1.78-.74,1.48-.58c.61-.23,1.23-.46,1.86-.68l1.51-.52c.65-.22,1.3-.42,2-.62l1.54-.47c.69-.2,1.38-.38,2.08-.57l1.54-.4c.74-.19,1.5-.36,2.26-.53.49-.11,1-.23,1.48-.33.85-.18,1.71-.34,2.58-.5.43-.08.85-.17,1.28-.24,1.31-.23,2.63-.44,4-.63L695.9,625.56c-1.35.19-2.67.4-4,.63-.43.07-.85.16-1.28.24-.87.16-1.73.32-2.58.5-.5.1-1,.22-1.48.33-.76.17-1.52.34-2.26.53-.52.12-1,.27-1.54.4-.7.19-1.39.37-2.08.57l-1.54.47c-.66.2-1.31.4-2,.62l-1.51.52-1.87.68-1.47.58-1.79.74-1.41.63-.8.37,147.28,80.12Z"/><path class="cls-14" d="M1125.51,666c1.47-.2,2.89-.36,4.29-.49l-1,.1Q1127.16,665.79,1125.51,666Z"/><path class="cls-14" d="M1128.78,929.73c-.32-.07-.66-.12-1-.18-.51-.09-1-.18-1.53-.25l-.71-.09C1126.66,929.35,1127.74,929.52,1128.78,929.73Z"/><path class="cls-14" d="M1124.53,929.1c-.33,0-.66-.08-1-.1l-1.2-.1-.82,0C1122.54,928.91,1123.54,929,1124.53,929.1Z"/><path class="cls-14" d="M1120.44,928.81l-1,0h-2.53C1118.12,928.76,1119.29,928.77,1120.44,928.81Z"/><path class="cls-14" d="M1116,928.82l-1.38,0-1.21.07-1,.08C1113.63,928.92,1114.81,928.85,1116,928.82Z"/><path class="cls-14" d="M1148.45,666.48c-.27-.07-.55-.12-.82-.18.78.17,1.54.36,2.29.57l-.53-.16Z"/><path class="cls-14" d="M1152.48,667.66c-.24-.09-.5-.15-.74-.23.56.19,1.11.38,1.64.59l-.31-.14Z"/><path class="cls-14" d="M1156.12,669.19c-.11-.06-.22-.1-.33-.15s-.49-.2-.72-.31c.62.28,1.23.56,1.82.87-.18-.1-.35-.2-.54-.29Z"/><path class="cls-14" d="M1131.9,930.48c-.2-.05-.39-.13-.6-.18l-.92-.22-.86-.19C1130.34,930.06,1131.13,930.27,1131.9,930.48Z"/><path class="cls-14" d="M1135.43,931.65l-.33-.14c-.22-.08-.43-.17-.65-.24l-.7-.22C1134.32,931.24,1134.88,931.43,1135.43,931.65Z"/><path class="cls-14" d="M1144.49,665.73l-.75-.1c1,.13,2,.29,3,.49l-.83-.16Z"/><path class="cls-14" d="M1136.14,665.2h-.86c1.17,0,2.32,0,3.45,0l-.92,0Z"/><path class="cls-14" d="M1137.14,932.37c.62.28,1.25.56,1.84.88-.3-.16-.59-.33-.9-.48S1137.45,932.51,1137.14,932.37Z"/><path class="cls-14" d="M1131.88,665.35l-1,.08c1.18-.09,2.35-.16,3.49-.2l-1.33.06Z"/><path class="cls-15" d="M1106.87,929.62c1.5-.22,3-.37,4.39-.51h0l1-.08h.2c1.21-.1,2.39-.17,3.55-.2l.34,0h.61c1.2,0,2.37,0,3.52,0l.72,0c.12,0,.23,0,.35,0,1,0,2,.13,3,.24l.27,0,.75.09c1.11.14,2.19.31,3.23.52.11,0,.23,0,.34.06s.27.07.4.1c.82.17,1.61.38,2.38.59.15,0,.31.07.46.12l.71.21c.23.07.45.16.68.24.57.19,1.13.38,1.68.6.21.08.45.14.66.23l.26.12c.27.11.52.25.79.37.62.28,1.25.56,1.84.88q19,10.05,19,42.63-.1,54.36-51.28,61.54L903.6,1066l-.36,194.23q-.13,73.08-62.87,81.88-24.71,3.47-40.42-5.94c-.33-.2-.68-.38-1-.59-.56-.36-1.11-.75-1.65-1.14-.25-.17-.5-.32-.74-.5-.54-.39-1-.82-1.57-1.24-.23-.19-.48-.36-.71-.56-.74-.62-1.46-1.28-2.16-2q-16.89-16.34-16.82-52l.91-490.92c0-1.64,0-3.26.1-4.85,0-.52.05-1,.07-1.54,0-1.08.1-2.14.18-3.2,0-.58.09-1.16.13-1.74.08-1,.17-1.92.27-2.87.07-.58.13-1.16.2-1.74.12-.94.25-1.87.38-2.78l.24-1.62c.17-1,.35-2,.54-3,.08-.41.15-.83.24-1.24.28-1.38.59-2.74.93-4.07,0-.21.11-.4.16-.61.29-1.12.6-2.22.93-3.31.13-.44.28-.87.42-1.31.27-.83.55-1.66.84-2.48.14-.41.3-.81.45-1.21.45-1.21.93-2.4,1.44-3.56.11-.25.21-.51.33-.76.61-1.36,1.26-2.67,1.94-4,.21-.4.43-.79.64-1.18.37-.66.74-1.31,1.13-2,.25-.42.51-.83.77-1.24.39-.62.79-1.23,1.2-1.84.28-.41.56-.82.85-1.22s.71-1,1.08-1.45.64-.83,1-1.24.76-.93,1.14-1.38.68-.8,1-1.18.85-.92,1.28-1.38.7-.73,1.06-1.08.92-.89,1.38-1.32.71-.67,1.07-1c.88-.78,1.77-1.54,2.69-2.27l.14-.11c1-.77,2-1.51,3-2.22l.66-.44c1.3-.88,2.63-1.73,4-2.53l.51-.3c1.46-.83,3-1.61,4.53-2.35l1.29-.61,1.43-.63,1.78-.74,1.48-.58c.61-.23,1.23-.46,1.86-.68l1.51-.52c.65-.22,1.3-.42,2-.62l1.54-.47c.69-.2,1.38-.38,2.08-.57l1.54-.4c.74-.19,1.5-.36,2.26-.53.49-.11,1-.23,1.48-.33.85-.18,1.71-.34,2.58-.5.43-.08.85-.17,1.28-.24,1.31-.23,2.63-.44,4-.63L1125.51,666c1.47-.2,2.89-.36,4.29-.49l1-.08h.17c1.18-.09,2.35-.16,3.49-.2l.34,0h.53c1.17,0,2.32,0,3.45,0l.77,0,.29,0c1,.06,2,.13,3,.24l.3,0,.69.09c1,.13,2,.29,3,.49l.52.09.34.09c.78.17,1.54.36,2.29.57l.51.13.69.21.62.22c.56.19,1.11.38,1.64.59.21.08.43.14.63.22l.12,0c.32.14.62.31.94.45.62.28,1.23.56,1.82.87q18.93,10,18.88,42.79-.11,54.36-50.46,61.43L904.09,804.91,904,857.3l-.14,76.12-.05,24.73,203.07-28.53"/><path class="cls-14" d="M1111.23,929.12l-1,.09c-1.09.11-2.19.25-3.31.41,1.5-.22,3-.37,4.39-.51Z"/><path class="cls-14" d="M1140.63,665.33l-.84-.05c1,.06,2,.13,3,.24l-.93-.1C1141.43,665.39,1141,665.35,1140.63,665.33Z"/><path class="cls-14" d="M1126.26,929.3c.51.07,1,.16,1.53.25Z"/><path class="cls-14" d="M1113.38,928.94l-1.16.09h.2Z"/><path class="cls-14" d="M1130.38,930.08c-.42-.1-.83-.21-1.26-.29.14,0,.27.07.4.1Z"/><path class="cls-14" d="M1111.27,929.11h0Z"/><path class="cls-14" d="M1117.72,928.78h0Z"/><path class="cls-14" d="M1106.87,929.62c1.12-.16,2.22-.3,3.31-.41C1109.09,929.32,1108,929.46,1106.87,929.62Z"/><path class="cls-14" d="M1116.31,928.8c-.56,0-1.14,0-1.72.07l1.38,0Z"/><path class="cls-14" d="M1122.33,928.9l-1.17-.07c.12,0,.23,0,.35,0Z"/><path class="cls-14" d="M1124.8,929.12c-.42,0-.84-.09-1.27-.12.34,0,.67.06,1,.1Z"/><path class="cls-14" d="M1132.36,930.6c-.35-.11-.7-.21-1.06-.3.21.05.4.13.6.18S1132.21,930.55,1132.36,930.6Z"/><path class="cls-14" d="M1138.08,932.77c-.56-.27-1.14-.53-1.73-.77.27.11.52.25.79.37S1137.78,932.62,1138.08,932.77Z"/><path class="cls-14" d="M1136.09,931.88c-.32-.13-.66-.25-1-.37l.33.14C1135.64,931.73,1135.88,931.79,1136.09,931.88Z"/><path class="cls-14" d="M1134.45,931.27c-.46-.16-.92-.32-1.38-.46.23.07.45.16.68.24Z"/><path class="cls-14" d="M1139.5,665.26l.29,0,.84.05Z"/><path class="cls-14" d="M1147.29,666.21l.34.09c.27.06.55.11.82.18C1148.06,666.39,1147.68,666.29,1147.29,666.21Z"/><path class="cls-14" d="M1142.75,665.52l.3,0-1.23-.12Z"/><path class="cls-14" d="M1144.49,665.73l1.45.23Z"/><path class="cls-14" d="M1130.75,665.44h.17l1-.08C1131.5,665.37,1131.12,665.41,1130.75,665.44Z"/><path class="cls-14" d="M1125.51,666q1.65-.22,3.24-.39Q1127.16,665.79,1125.51,666Z"/><path class="cls-14" d="M1134.41,665.23l.34,0-1.67.08Z"/><path class="cls-14" d="M1136.14,665.2h0Z"/><path class="cls-14" d="M1151.12,667.21l.62.22c.24.08.5.14.74.23C1152,667.5,1151.58,667.36,1151.12,667.21Z"/><path class="cls-14" d="M1154.13,668.28c.32.14.62.31.94.45s.49.2.72.31C1155.25,668.78,1154.7,668.52,1154.13,668.28Z"/><path class="cls-14" d="M1149.92,666.87l.51.13c-.34-.1-.68-.2-1-.29Z"/><path class="cls-14" d="M1153.38,668c.21.08.43.14.63.22-.31-.13-.63-.24-.94-.36Z"/><path class="cls-14" d="M1156.12,669.19l.23.12A2.53,2.53,0,0,0,1156.12,669.19Z"/><path class="cls-14" d="M809.2,1324.64c.23.2.47.37.71.56C809.67,1325,809.43,1324.84,809.2,1324.64Z"/><path class="cls-14" d="M811.47,1326.44c.24.18.5.33.74.5C812,1326.77,811.71,1326.62,811.47,1326.44Z"/><path class="cls-14" d="M814.87,1328.67c-.33-.2-.68-.39-1-.6C814.19,1328.28,814.54,1328.47,814.87,1328.67Z"/><path class="cls-16" d="M904.74,857.09c26.72-3.85,47.31-6.74,57.77-8.2a56.93,56.93,0,0,1,8.61-.53,37.44,37.44,0,0,1,12.22,1.75,29.52,29.52,0,0,1,7,3.49c6.18,4.1,59.21,32.84,138,75.11l-6,.19-9.91.12-18.15,2.37L904.74,958.15Z"/></g></svg>