<svg id="Fondo" xmlns="http://www.w3.org/2000/svg" viewBox="0 0 2480 3508"><defs><style>.cls-1{fill:#9646bf;opacity:0.7;}.cls-2,.cls-8{fill:#242645;}.cls-3,.cls-5{fill:#fff;}.cls-3,.cls-6,.cls-7,.cls-8{stroke:#03022c;}.cls-13,.cls-3,.cls-6,.cls-7,.cls-8{stroke-miterlimit:10;}.cls-4{fill:#a54930;}.cls-13,.cls-16,.cls-6{fill:#03022c;}.cls-11,.cls-7{fill:none;}.cls-9{fill:#2f2780;}.cls-10{fill:#6251c5;}.cls-12{fill:#595e8d;}.cls-13{stroke:#fff;}.cls-14{fill:#fffffb;}.cls-15{opacity:0.5;}.cls-17{fill:#e9dbd2;}.cls-18{fill:#f5722c;}</style></defs><g id="Capa_2" data-name="Capa 2"><path class="cls-1" d="M527.77,847.41c92.77,12.38,69.69,228.87,234.16,293.21,186.84,73.09,312.83-168.7,630-172.63,251.81-3.12,452.19,145.86,547.68,216.85,149,110.77,233.1,231.81,292.23,316.9,75.9,109.24,146.32,210.57,174.55,350.6,25,123.85,54.19,188.91,9.68,421.22-85.58,446.64-33.71,521.38-170.34,683.5-124,147.08-111.62,141.48-236.12,240-340.83,269.8-996.12,201.47-1355.69-44.68-149-102-414.07-283.47-559.55-625.09C-234.85,1754.32,328.93,820.86,527.77,847.41Z"/></g><path class="cls-2" d="M1089,1694.55s-48.64-7.83-61.67,79.19c-14.48,96.79-53.26,80.87-114.77,159.43-36,45.91,1.89,127,78.78,125.42s146.33-24.13,190.58-14.47,46.68-105.26,3-140.7,49.42-137.24-7.29-182.56S1089,1694.55,1089,1694.55Z"/><path class="cls-3" d="M1207.25,1954.66l50.23,183.65-17.9-20.63a91,91,0,0,0,22.8,8.13,164.77,164.77,0,0,0,27.44,3.52c9.68.5,19.78.42,30.1,0s20.87-1.21,31.57-2.12h.06a28.7,28.7,0,0,1,7,56.94c-11,1.76-22.27,3.43-33.8,4.76s-23.33,2.33-35.56,2.61a229.17,229.17,0,0,1-38-2.09,158,158,0,0,1-39.88-11,31.21,31.21,0,0,1-17.27-18.74l-.64-1.9-60.25-180.61a38.75,38.75,0,1,1,73.51-24.53C1206.85,1953.26,1207.08,1954,1207.25,1954.66Z"/><path class="cls-4" d="M957.35,2171.38s-1.85,13.81,16.67,17.45l192.6,4A21.7,21.7,0,0,0,1177,2170S1095.12,2125.37,957.35,2171.38Z"/><path class="cls-5" d="M1168.88,2262.33c-119.17,17.62-208-16.61-208-16.61,5.15-14.63,8.89-31.1,11.57-46.08,3.11-17.42,4.78-32.8,5.53-40.88,42.48-2.87,146.61-8.64,187.56.52l.54,16.36Z"/><path class="cls-5" d="M1095.61,2206.92c-.67,5.16-2.95,9.12-5.08,8.84s-3.32-4.68-2.65-9.85,2.95-9.12,5.08-8.84S1096.28,2201.76,1095.61,2206.92Z"/><path class="cls-5" d="M1166.06,2175.64c-42.59-2-126.33-1.87-193.63,24,3.11-17.42,4.78-32.8,5.53-40.88,42.48-2.87,146.61-8.64,187.56.52Z"/><path class="cls-3" d="M1177.85,2135.49c0,.09,0,.18,0,.3-.08.73-.12,1.52-.18,2.34-.19,3.16-.36,6.9-.45,11.17-.1,3.45-.14,7.21-.18,11.27q0,4.5,0,9.41c-56.8-24.49-172.89-7.1-219.64,1.4.47-2.34.92-4.65,1.32-6.93.32-1.67.61-3.34.9-5a369.54,369.54,0,0,0,5.28-48.44c0-1.25.08-2.53.11-3.85.46-21.36-1.84-51.74-6.53-83.06-.32-2.16-.66-4.3-1-6.45-.23-1.42-.47-2.82-.7-4.22-1.73-10.44-3.73-20.87-6-31-.77-3.46-1.44-7-2-10.41-.62-3.85-1.12-7.68-1.47-11.49a119.82,119.82,0,0,1,.47-27.79c2.25-15.57,8.32-29,19.58-37.6,6.36-4.88,14.41-8.23,24.37-9.57,3.26-.45,6.47-.86,9.58-1.22,9.77-1.17,18.74-2,26-2.61,2.41-.2,4.64-.35,6.64-.5,5.12-.37,8.86-.57,10.73-.67l1.34-.07,87.17,24.12,8.3,2.29q5.28,1.62,10,3.19c7.67,2.55,14.23,5,19.87,7.38a96,96,0,0,1,16.94,8.94c19.23,13.29,16.47,28.62,16.37,58.81,0,.51,0,1,0,1.57a4.34,4.34,0,0,1,0,.51c0,2.28,0,4.56.14,6.83.09,2.85.25,5.68.46,8.52.4,5.7,1,11.35,1.67,16.9,4.15,34,11.94,64.24,4.2,79.89-8.25,16.78-25.15,30.13-31.11,34.5C1178.65,2135,1177.85,2135.49,1177.85,2135.49Z"/><path class="cls-3" d="M1047.08,2123.43a2.11,2.11,0,0,0,1.59,1.36,2,2,0,0,0,1.06-.08c.37-.13,37.17-12.57,76.27,3.05,19.86,7.93,37.47,10.84,51.66,10.37,0-.83.1-1.61.17-2.35,0-.1,0-.2,0-.29s.8-.53,2.16-1.53c-14,.86-31.89-1.86-52.47-10.07-40.58-16.2-77.62-3.65-79.17-3.11A2.09,2.09,0,0,0,1047.08,2123.43Z"/><path class="cls-3" d="M1117.41,1978.36c25.91,4.91,36.87-21.95,37-22.22a2.08,2.08,0,1,0-3.86-1.54c-.41,1-9.85,23.94-32.34,19.68-23.59-4.47-68.09-50.23-68.54-50.69a2.08,2.08,0,1,0-3,2.89C1048.51,1928.41,1092.53,1973.65,1117.41,1978.36Z"/><path class="cls-4" d="M1017.72,2156.12a1.93,1.93,0,0,1,0-3.79c39.7-7.82,68.29-21.85,68.57-22a1.93,1.93,0,1,1,1.72,3.46c-.29.14-29.31,14.39-69.55,22.32A1.79,1.79,0,0,1,1017.72,2156.12Z"/><path class="cls-6" d="M1173.34,1798.48s8,1.72,8.21,12.18-7.08,26.93-17.2,23.52S1173.34,1798.48,1173.34,1798.48Z"/><path class="cls-6" d="M1140,1843.31a22.63,22.63,0,1,1,16.92,27.16A22.67,22.67,0,0,1,1140,1843.31Zm4,.93a18.53,18.53,0,1,0,22.25-13.86A18.55,18.55,0,0,0,1144,1844.24Z"/><line class="cls-3" x1="1134.84" y1="1874.59" x2="1134.84" y2="1874.6"/><path class="cls-3" d="M1049.84,1887.64s7.8,29.53,37.29,37.71c37.47,10.37,43.13-2.21,43.13-2.21a73,73,0,0,1-1-16.21q.15-3.15.52-6.48a177.16,177.16,0,0,1,3.7-20.14c.41-1.77.86-3.6,1.33-5.48l0-.23c-25.64-9.63-45.77-24.12-58.08-45.52l-3.67-2.87-2.46-1.94-.69,1.48-.12,5C1069.31,1854.13,1065.32,1868,1049.84,1887.64Z"/><path class="cls-3" d="M1106.13,1956.74a23.71,23.71,0,0,0,2.48.32c7.77.52,14-1.81,18.59-6.93,13.3-14.91,7.33-48.43,7.07-49.84a2.08,2.08,0,1,0-4.09.75c.06.32,5.86,32.94-6.09,46.33-3.72,4.17-8.69,6-15.19,5.54-27.22-1.84-58.55-70.48-58.86-71.17a2.08,2.08,0,0,0-3.79,1.71C1047.54,1886.29,1077.25,1951.27,1106.13,1956.74Z"/><path class="cls-6" d="M1092.48,1851.74c4,13.33,14.08,37.3,37.28,48.71a177.16,177.16,0,0,1,3.7-20.14c.41-1.77.86-3.6,1.33-5.48l-1.61-.06C1118.66,1873.88,1104,1864.45,1092.48,1851.74Z"/><path class="cls-3" d="M1043.35,1782.08c-2.74,14.21,5.94,33.93,24.43,38l.1,0h0l.39.09c.14.88.33,1.75.54,2.63.09.39.18.78.28,1.16a.23.23,0,0,0,0,.11c6.93,26.37,38.6,47.19,57.11,51.28a42.89,42.89,0,0,0,12.85.78c20.55-.49,29.36-26.42,30.19-47.39a80.36,80.36,0,0,0-.14-8.71c0-.19,0-.38-.05-.57,0,0,12.09-27.22,16-39.35,7.63-23.51-1.48-50.65-53.39-65.63s-70.88,15.38-77.93,32.06c-1.19,2.78-3.93,20.16-1.57,23.5C1046.73,1771.67,1044.26,1777.3,1043.35,1782.08Z"/><path class="cls-7" d="M1125.26,1827.32s-2.82,16.79,10.92,20.77,18.32-9.36,18.32-9.36Z"/><path class="cls-6" d="M1132,1853.72a7.7,7.7,0,0,1-3.67-3.53,1.29,1.29,0,1,1,2.35-1,5.21,5.21,0,0,0,5.17,2.69,1.29,1.29,0,0,1,.15,2.57A8.43,8.43,0,0,1,1132,1853.72Z"/><path class="cls-6" d="M1117.63,1794.65a1.78,1.78,0,0,1-.61-.58,2,2,0,0,1,.53-2.75,12,12,0,0,1,12.69-.06c5.75,3.5,5.78,10.77,5.77,11.08a2,2,0,1,1-4,0s0-5.34-3.88-7.67a8.09,8.09,0,0,0-8.4,0A2,2,0,0,1,1117.63,1794.65Z"/><path class="cls-6" d="M1151.93,1810.26a2,2,0,0,1-.82-2.4c.09-.22,2.19-5.54,7.78-5.9a11.3,11.3,0,0,1,9.55,4.61,2,2,0,0,1-3.26,2.25,7.28,7.28,0,0,0-6-2.9c-3.08.2-4.31,3.33-4.33,3.36a2,2,0,0,1-2.56,1.14A1.91,1.91,0,0,1,1151.93,1810.26Z"/><path class="cls-6" d="M1067.79,1820.1l.09,0h0l.39.09c.14.88.33,1.75.54,2.64.09.38.18.77.28,1.15l0,.11a17.39,17.39,0,0,0,7.73-1.46,13.82,13.82,0,0,0,4.58-3.37,2,2,0,0,0-.16-2.76,1.93,1.93,0,0,0-2.75.15,10.57,10.57,0,0,1-5.35,3.12,14.36,14.36,0,0,1-3.55.4A16.26,16.26,0,0,1,1067.79,1820.1Z"/><path class="cls-6" d="M1049.56,1808c1,1.11,2,2.23,3,3.31a18.52,18.52,0,1,0,10.63.27c-1.3-.71-2-2.61-1.7-4.65.35.06.7.13,1,.21a22.71,22.71,0,1,1-13,.86Z"/><path class="cls-6" d="M1145.54,1826.91a1.7,1.7,0,0,0,.92-.05l8.06-2.85a1.63,1.63,0,0,0,.53-2.77c-5-4.47-7.5-10.31-7.7-18.4a1.64,1.64,0,1,0-3.27.08c.19,8,2.39,14,6.86,18.88l-5.57,2a1.64,1.64,0,0,0,.17,3.14Z"/><path class="cls-6" d="M1138.73,1777.79c4.1,1.51,7.34-3.8,4.06-6.68a11.55,11.55,0,0,0-7.63-2.75c-15-.34-23.1,11.25-23.1,11.25s14.77-4.13,22.35-2.94A22.51,22.51,0,0,1,1138.73,1777.79Z"/><path class="cls-6" d="M1161.19,1783.74c-4.34-.45-4.91-6.65-.69-7.79a11.61,11.61,0,0,1,8,.9c13.63,6.32,12.18,16.77,12.18,16.77s-7.84-6.7-15.17-9A22.67,22.67,0,0,0,1161.19,1783.74Z"/><path class="cls-6" d="M1071.68,1809.35a2,2,0,0,1-1.28-1.84c0-13.86-14.83-22.72-15-22.81a2,2,0,1,1,2-3.37c.69.4,16.93,10.06,16.91,26.19a2,2,0,0,1-2,2A1.85,1.85,0,0,1,1071.68,1809.35Z"/><path class="cls-6" d="M1056.43,1798.67a1.78,1.78,0,0,1-.64-.39,2,2,0,0,1-.12-2.76,13.4,13.4,0,0,1,12.68-3.49,2,2,0,1,1-.9,3.8,9.49,9.49,0,0,0-8.9,2.33A2,2,0,0,1,1056.43,1798.67Z"/><path class="cls-8" d="M1122.45,1742.44s0,15.57-14.31,21.77c-11.88,5.13-18.58,5.9-18.58,5.9s9.46,44.54-7.31,47.52-6.26-41.79-30-47.55c0,0-8.31-3.46-4.55-18.41s24.17-54,76.69-43.13c39.4,8.12,70.33,36,66.43,64s-8.81,21.42-8.81,21.42,5.86-15.6-10.89-31.33C1157.21,1749.54,1122.45,1742.44,1122.45,1742.44Z"/><path class="cls-9" d="M1226.59,2620.44a6.62,6.62,0,0,1-2.25-.39l-263.12-94.87a6.63,6.63,0,1,1,4.51-12.48l263.12,94.86a6.64,6.64,0,0,1-2.26,12.88Z"/><path class="cls-9" d="M952.54,2620.44a6.63,6.63,0,0,1-2.26-12.87l266.25-96.43a6.64,6.64,0,0,1,4.52,12.48L954.8,2620.05A6.6,6.6,0,0,1,952.54,2620.44Z"/><path class="cls-10" d="M1250,2790a11.37,11.37,0,0,1-11.25-9.85l-47.52-354.86H992.35L945.57,2780.1a11.36,11.36,0,1,1-22.52-3l48.08-364.71a11.36,11.36,0,0,1,11.26-9.87h218.77a11.36,11.36,0,0,1,11.26,9.85l48.85,364.7a11.37,11.37,0,0,1-9.75,12.77A11.19,11.19,0,0,1,1250,2790Z"/><path class="cls-10" d="M1137.8,2413.92H995.72c-45,0-93.22-24.64-100.13-69.12a844,844,0,0,1-9-169.94A207,207,0,0,1,965.1,2022.4h0s28.38,123.69-7.31,294.4C971.42,2381.67,1137.8,2413.92,1137.8,2413.92Z"/><path class="cls-2" d="M1466.52,2637.92h-63.46s-14.69-70.44-19.62-109.94-7.48-133.14-7.48-133.14-50.58,16.43-156.45,10.23c-234.57-13.7-145.63-186-145.63-186,7.93,10.95,56.47,3.36,89.66,8.59,101.84,9.77,190.16,49.74,243.17,72.61a264.67,264.67,0,0,1,34,17.46c12.78,7.88,20.78,31.78,25.59,63.21C1480.84,2475.38,1466.52,2637.92,1466.52,2637.92Z"/><path class="cls-11" d="M1410.93,2604a2.28,2.28,0,0,1-2.23-1.82c-9.15-45.32-12.22-101.72-14.69-147-2-37.58-4-73.07-8.81-77.33-3.91-3.46-20.15-.76-40.7,2.65-40.89,6.79-102.67,17-170.8,1.19-37.12-8.64-64.4-26.66-81.1-53.58-28.79-46.43-15.66-104-15.53-104.56a2.27,2.27,0,1,1,4.42,1c-.13.56-12.81,56.36,15,101.15,16,25.84,42.36,43.18,78.24,51.52,67.25,15.65,128.5,5.49,169-1.24,24.28-4,38.92-6.47,44.45-1.58,6,5.28,7.66,31.23,10.34,80.5,2.46,45.17,5.53,101.39,14.62,146.38a2.25,2.25,0,0,1-2.23,2.72Z"/><path class="cls-12" d="M1467.73,2605.18h0l-70.57-1.51a2.28,2.28,0,0,1-2.22-2.32,2.24,2.24,0,0,1,2.32-2.22l70.57,1.51a2.28,2.28,0,0,1,0,4.55Z"/><polygon class="cls-3" points="1464.77 2719.23 1419.97 2719.23 1411.35 2666.68 1406.62 2637.92 1462.28 2637.92 1463.16 2666.68 1464.77 2719.23"/><polygon class="cls-3" points="1464.77 2719.23 1419.97 2719.23 1413.55 2680.11 1411.35 2666.68 1463.16 2666.68 1463.59 2680.6 1464.77 2719.23"/><path class="cls-3" d="M1575.31,2790H1405.88c-1.26-2.29-1.94-5.54-2.22-9.41-1.06-14.33,3.5-37.2,5.74-51.62.28-1.69.51-3.26.69-4.68a50.4,50.4,0,0,0,.51-5.9c0-11.76,10.41-9.75,10.41-9.75,17.15,16.82,36.56-8.39,47.9-.12,0,0,.46.33,1.49,1.15s2.4,1.91,4.41,3.6c2.89,2.41,6.94,5.91,12.43,10.85,13.44,12.1,36.32,20.09,55.8,28.23q3.72,1.56,6.93,3.11c1.62.78,3.15,1.57,4.59,2.35,15.92,8.59,21,16.81,22.14,22.78A13.23,13.23,0,0,1,1575.31,2790Z"/><path class="cls-3" d="M1554.56,2757.79c-4.36,3.47-14.07,10.42-21.85,10.42-.34,0-.69,0-1,0-5.5-.46-25.69-10.38-42.12-19.41-9.41-5.17-18-10.26-24.19-14.35-10.15-6.68-11.9-9.23-12.3-11-1.48-6.68,9.57-11.34,17.32-13.75,1,.75,2.4,1.91,4.41,3.6-9.63,2.62-17.54,6.73-17.17,9.08.94,2,11,9.62,34.95,22.75,18.29,10,35.64,18.1,39.49,18.42,5.21.43,12.88-4.32,17.89-8.06C1551.59,2756.22,1553.12,2757,1554.56,2757.79Z"/><path class="cls-3" d="M1575.31,2790H1405.89c-1.27-2.29-2-5.54-2.23-9.41h173A13.23,13.23,0,0,1,1575.31,2790Z"/><path class="cls-3" d="M1423.17,2790h-5c5-5.74,9.72-14.54,9.1-27.13-.81-16.74-10.86-28-17.84-33.9.28-1.69.51-3.26.69-4.68,7.52,5.75,20.2,18.33,21.19,38.38A41.14,41.14,0,0,1,1423.17,2790Z"/><path class="cls-3" d="M1484.37,2734.09a2.79,2.79,0,0,1-.67-5.5l10.58-2.63a2.79,2.79,0,1,1,1.34,5.42L1485,2734A3.14,3.14,0,0,1,1484.37,2734.09Z"/><path class="cls-3" d="M1473.85,2725.28a2.79,2.79,0,0,1-.67-5.5l10.58-2.63a2.79,2.79,0,0,1,1.35,5.42l-10.59,2.63A3.07,3.07,0,0,1,1473.85,2725.28Z"/><path class="cls-3" d="M1495,2740.24a2.79,2.79,0,0,1-.67-5.5l10.58-2.63a2.79,2.79,0,0,1,1.35,5.42l-10.59,2.63A2.56,2.56,0,0,1,1495,2740.24Z"/><path class="cls-3" d="M1505.53,2746.16a2.8,2.8,0,0,1-.67-5.51l10.59-2.62a2.79,2.79,0,1,1,1.34,5.42l-10.58,2.62A2.71,2.71,0,0,1,1505.53,2746.16Z"/><path class="cls-3" d="M1517.07,2751.63a2.8,2.8,0,0,1-.67-5.51l10.59-2.62a2.79,2.79,0,1,1,1.34,5.42l-10.58,2.62A2.71,2.71,0,0,1,1517.07,2751.63Z"/><path class="cls-3" d="M1529.59,2756.29a2.79,2.79,0,0,1-.67-5.5l10.58-2.63a2.79,2.79,0,0,1,1.35,5.42l-10.59,2.63A3.07,3.07,0,0,1,1529.59,2756.29Z"/><path class="cls-3" d="M1035.25,1929.88l58,211.95L1072.55,2118a105.52,105.52,0,0,0,26.32,9.39,190.87,190.87,0,0,0,31.66,4.06c11.18.58,22.83.48,34.74,0s24.09-1.39,36.44-2.44h.07a33.13,33.13,0,0,1,8,65.72c-12.74,2-25.71,4-39,5.5s-26.93,2.69-41,3a264.74,264.74,0,0,1-43.84-2.42,181.81,181.81,0,0,1-46-12.72,36,36,0,0,1-19.93-21.62l-.73-2.2-69.54-208.43a44.72,44.72,0,1,1,84.84-28.31C1034.78,1928.27,1035,1929.15,1035.25,1929.88Z"/><path class="cls-3" d="M1061.19,2135.05a1.72,1.72,0,0,1-.86-3.21c.54-.3,13.22-7.46,26.48-8.49a1.72,1.72,0,0,1,.26,3.43c-12.47,1-24.91,8-25,8A1.61,1.61,0,0,1,1061.19,2135.05Z"/><path class="cls-3" d="M1082.25,2127.4a1.69,1.69,0,0,1-.89-.25c-8-4.85-17.67-5.59-17.77-5.59a1.72,1.72,0,0,1,.25-3.43c.42,0,10.6.81,19.3,6.08a1.72,1.72,0,0,1-.89,3.19Z"/><path class="cls-2" d="M1356,2638.14h-63.46s-14.69-70.44-19.61-109.94-7.49-133.14-7.49-133.14-50.58,16.42-156.44,10.23c-234.58-13.7-145.63-186-145.63-186,7.92,10.95,67.37,26,100.55,31.26,101.85,9.78,179.27,27.07,232.27,49.94a263.41,263.41,0,0,1,34,17.46c12.79,7.88,20.78,31.78,25.6,63.21C1370.35,2475.6,1356,2638.14,1356,2638.14Z"/><path class="cls-11" d="M1300.44,2604.2a2.26,2.26,0,0,1-2.22-1.82c-9.15-45.32-12.23-101.72-14.7-147-2-37.58-4-73.07-8.81-77.34-3.91-3.45-20.14-.76-40.7,2.66-40.88,6.78-102.66,17-170.8,1.19-37.11-8.64-64.39-26.66-81.09-53.58-28.8-46.43-15.67-104-15.53-104.56a2.27,2.27,0,1,1,4.42,1c-.13.56-12.82,56.36,15,101.15,16,25.84,42.36,43.17,78.24,51.52,67.26,15.65,128.5,5.48,169-1.25,24.27-4,38.92-6.46,44.45-1.57,6,5.28,7.65,31.23,10.34,80.49,2.46,45.18,5.52,101.4,14.61,146.39a2.26,2.26,0,0,1-1.78,2.67A2.3,2.3,0,0,1,1300.44,2604.2Z"/><path class="cls-12" d="M1357.25,2605.39h0l-70.57-1.51a2.28,2.28,0,0,1-2.23-2.32,2.24,2.24,0,0,1,2.32-2.22l70.57,1.51a2.27,2.27,0,0,1,0,4.54Z"/><polygon class="cls-3" points="1354.28 2719.45 1309.49 2719.45 1300.86 2666.9 1296.14 2638.14 1351.79 2638.14 1352.67 2666.9 1354.28 2719.45"/><polygon class="cls-3" points="1354.28 2719.45 1309.49 2719.45 1303.06 2680.33 1300.86 2666.9 1352.67 2666.9 1353.1 2680.82 1354.28 2719.45"/><path class="cls-3" d="M1464.82,2790.2H1295.4c-1.26-2.29-2-5.54-2.23-9.41-1.06-14.34,3.51-37.2,5.75-51.63.27-1.68.51-3.25.69-4.67a50,50,0,0,0,.5-5.9c0-11.76,10.42-9.75,10.42-9.75,17.14,16.82,36.55-8.39,47.89-.12,0,0,.46.33,1.5,1.14s2.4,1.92,4.4,3.6c2.89,2.42,6.94,5.92,12.43,10.86,13.45,12.1,36.32,20.09,55.81,28.23,2.48,1,4.78,2.08,6.92,3.11,1.63.78,3.16,1.57,4.6,2.35,15.92,8.59,21,16.81,22.13,22.78A13.17,13.17,0,0,1,1464.82,2790.2Z"/><path class="cls-3" d="M1444.08,2758c-4.36,3.47-14.07,10.42-21.85,10.42-.35,0-.69,0-1,0-5.49-.46-25.68-10.38-42.11-19.41-9.42-5.18-18-10.27-24.2-14.35-10.14-6.68-11.9-9.24-12.3-11-1.48-6.68,9.58-11.34,17.33-13.76.95.75,2.4,1.92,4.4,3.6-9.62,2.63-17.53,6.74-17.17,9.08.95,2,11,9.63,34.95,22.76,18.3,10,35.64,18.1,39.49,18.42,5.22.42,12.89-4.32,17.89-8.06C1441.11,2756.44,1442.64,2757.23,1444.08,2758Z"/><path class="cls-3" d="M1464.82,2790.2H1295.4c-1.26-2.29-2-5.54-2.23-9.41h173A13.23,13.23,0,0,1,1464.82,2790.2Z"/><path class="cls-3" d="M1312.69,2790.2h-5c5-5.74,9.72-14.54,9.11-27.13-.82-16.74-10.86-28-17.84-33.91.27-1.68.5-3.25.69-4.67,7.52,5.74,20.2,18.33,21.18,38.38A41.1,41.1,0,0,1,1312.69,2790.2Z"/><path class="cls-3" d="M1373.88,2734.31a2.79,2.79,0,0,1-.67-5.5l10.58-2.63a2.79,2.79,0,1,1,1.35,5.42l-10.58,2.63A3.23,3.23,0,0,1,1373.88,2734.31Z"/><path class="cls-3" d="M1363.36,2725.5a2.79,2.79,0,0,1-.67-5.5l10.59-2.63a2.79,2.79,0,1,1,1.34,5.42l-10.58,2.62A2.65,2.65,0,0,1,1363.36,2725.5Z"/><path class="cls-3" d="M1384.46,2740.46a2.79,2.79,0,0,1-.67-5.5l10.59-2.63a2.79,2.79,0,1,1,1.34,5.42l-10.58,2.63A3.16,3.16,0,0,1,1384.46,2740.46Z"/><path class="cls-3" d="M1395.05,2746.37a2.79,2.79,0,0,1-.67-5.5l10.58-2.62a2.79,2.79,0,0,1,1.35,5.41l-10.59,2.63A2.56,2.56,0,0,1,1395.05,2746.37Z"/><path class="cls-3" d="M1406.59,2751.84a2.79,2.79,0,0,1-.67-5.5l10.58-2.62a2.79,2.79,0,1,1,1.35,5.41l-10.59,2.63A2.56,2.56,0,0,1,1406.59,2751.84Z"/><path class="cls-3" d="M1419.1,2756.51a2.79,2.79,0,0,1-.67-5.5l10.58-2.63a2.79,2.79,0,1,1,1.35,5.42l-10.58,2.63A3.23,3.23,0,0,1,1419.1,2756.51Z"/><path class="cls-2" d="M957.8,2236.24l5.6-17,11-27.67s111.19,43.22,193.74,22.33l1.2,14.31s-48.91,39.61-121.91,27.64S957.8,2236.24,957.8,2236.24Z"/><path class="cls-13" d="M1681.09,2216.72v14.07c0,8.1-6,14.65-13.36,14.65H738.44c-7.37,0-13.35-6.55-13.35-14.65v-14.07c0-8.09,6-14.65,13.35-14.65h929.29C1675.11,2202.07,1681.09,2208.63,1681.09,2216.72Z"/><rect class="cls-13" x="725.09" y="2221.18" width="956" height="6.44"/><path class="cls-13" d="M1653.16,2281.61H779.64c-3.91,0-7.08-2.6-7.08-5.8v-30.53h887.68v30.53C1660.24,2279,1657.07,2281.61,1653.16,2281.61Z"/><rect class="cls-13" x="790.94" y="2460.96" width="743.93" height="24.91"/><polygon class="cls-13" points="732.42 2794.63 856.16 2281.61 812.7 2281.61 688.97 2794.63 732.42 2794.63"/><polygon class="cls-13" points="1580.1 2794.63 1456.37 2281.61 1499.82 2281.61 1623.56 2794.63 1580.1 2794.63"/><path class="cls-14" d="M1123.53,2202.21h266.3l2.89-10.05a9.89,9.89,0,0,0-9.5-12.62H1137.5a9.89,9.89,0,0,0-9.5,7.15Z"/><path class="cls-14" d="M1585.39,1930l-45.5,192.37-1.19,5.06-3.06,13a12.43,12.43,0,0,1-12.09,9.57H1217.11a12.43,12.43,0,0,1-12.09-15.29l49.74-210.38a12.42,12.42,0,0,1,12.09-9.56h306.44A12.43,12.43,0,0,1,1585.39,1930Z"/><polygon class="cls-5" points="1539.89 2122.37 1538.7 2127.43 1220.52 2127.43 1220.52 2122.37 1539.89 2122.37"/><g class="cls-15"><path class="cls-16" d="M1279,1914.72,1226,2150h-8.92a12.43,12.43,0,0,1-12.09-15.29l49.74-210.38a12.43,12.43,0,0,1,12.09-9.57Z"/></g><polygon class="cls-17" points="1367.76 2149.95 1358.46 2202.23 1389.16 2202.23 1398.46 2149.95 1367.76 2149.95"/><path class="cls-14" d="M1312.51,2193.24l6.29-8.84a12,12,0,0,1,9.74-5h84.19a12,12,0,0,1,10.6,6.42l4.23,8.11a5.69,5.69,0,0,1-5,8.33H1317.15A5.69,5.69,0,0,1,1312.51,2193.24Z"/><polygon class="cls-5" points="590.13 2638.89 596.17 2710.58 543 2711.4 530.91 2642.51 590.13 2638.89"/><path class="cls-3" d="M720.57,2794.94l-194.25-1c-1.43-2.63-2.2-6.36-2.5-10.8-1.13-16.44,4.23-42.64,6.88-59.16.32-1.93.6-3.73.81-5.36a55.82,55.82,0,0,0,.62-6.75c.06-13.49,12-11.12,12-11.12,19.57,19.37,42-9.43,54.92.12,0,0,5.57,4,20.93,18s41.53,23.24,63.81,32.69c28.77,12.19,36.88,24.27,38.44,32.57A15.16,15.16,0,0,1,720.57,2794.94Z"/><path class="cls-3" d="M720.57,2794.94l-194.25-1c-1.43-2.63-2.2-6.36-2.5-10.8l198.4,1A15.16,15.16,0,0,1,720.57,2794.94Z"/><path class="cls-3" d="M546.14,2794.08l-5.77,0c5.79-6.55,11.23-16.62,10.59-31.05-.84-19.2-12.29-32.2-20.26-39,.32-1.93.6-3.73.81-5.36,8.6,6.63,23.06,21.14,24.08,44.13A47.18,47.18,0,0,1,546.14,2794.08Z"/><path class="cls-3" d="M616.62,2730.34a3.2,3.2,0,0,1-.74-6.31l12.15-3a3.2,3.2,0,1,1,1.51,6.22l-12.15,2.95A2.57,2.57,0,0,1,616.62,2730.34Z"/><path class="cls-3" d="M603.25,2719.81a3.21,3.21,0,0,1-.73-6.32l12.14-2.95a3.2,3.2,0,0,1,1.52,6.22L604,2719.71A3,3,0,0,1,603.25,2719.81Z"/><path class="cls-3" d="M628.72,2737.46a3.2,3.2,0,0,1-.74-6.31l12.15-3a3.2,3.2,0,0,1,1.51,6.22l-12.15,3A3.44,3.44,0,0,1,628.72,2737.46Z"/><path class="cls-3" d="M640.82,2744.3a3.2,3.2,0,0,1-.74-6.31l12.15-3a3.2,3.2,0,0,1,1.51,6.22l-12.15,3A3.44,3.44,0,0,1,640.82,2744.3Z"/><path class="cls-3" d="M654,2750.64a3.21,3.21,0,0,1-.74-6.32l12.15-3a3.2,3.2,0,0,1,1.51,6.22l-12.15,2.95A3,3,0,0,1,654,2750.64Z"/><path class="cls-3" d="M668.34,2756.05a3.2,3.2,0,0,1-.74-6.31l12.15-2.95a3.2,3.2,0,1,1,1.51,6.22L669.11,2756A3.44,3.44,0,0,1,668.34,2756.05Z"/><path class="cls-16" d="M594.34,2265c.8,6.33,1.5,12.08,2,17.11.12,1.29.25,2.62.4,4.06,5.31,63,.56,280.58-1.07,348.58-.08,2.27-.11,4.38-.16,6.29-.24,9.07.73,22.71.73,22.71l-64.94,5.53s-2.13-13.46-3.86-22.18c-.45-2.11-.89-4.42-1.4-6.91-7.24-36.22-22.74-113.94-35.95-182.07-17.95-92.5-14.11-147.5-14.11-147.5s3.66-22-10.19-75.66c-11.46-44.43-60.64-180.8-74.47-227.71-2.8-9.47,6.68-19.79,6.68-19.79s90.25-62.21,120.64-34.46c2.36,2.16,10.42,22.81,11.89,25.87,3.7,7.7,8.13,20.23,12.86,36C563.15,2080.2,586,2201.77,594.34,2265Z"/><path class="cls-16" d="M555.28,2287.59a55.09,55.09,0,0,0,39.74-4.14,3.13,3.13,0,0,0-3.13-5.42,49.72,49.72,0,0,1-36.27,3.13,3.13,3.13,0,0,0-1.85,6Z"/><polygon class="cls-3" points="330.3 2653.08 327.74 2712.87 266.92 2714.02 271.3 2657.82 330.3 2653.08"/><path class="cls-3" d="M253.14,2781.48c0,.48,0,.94,0,1.38,0,2.1.13,4,.22,5.6.21,3.56.47,5.75.47,5.75H371.93a65.24,65.24,0,0,0,.13-11.35c-.77-12.06-4.78-31.11-21.08-43.71-22.32-17.25-13.7-13.65-18.28-21.52-.52-.87-4.54-14.24-5-15.16-3.84-8.17-7.38-12-28.53-12-28,0-30.52,13.61-33.52,20.78-1.24,3-2.93,9.23-4.67,16.67-.7,3-1.41,6.17-2.11,9.41-1.73,8.14-3.34,16.63-4.44,23.41A122.43,122.43,0,0,0,253.14,2781.48Z"/><path class="cls-3" d="M253.14,2781.48c0,.48,0,.94,0,1.38,0,2.1.13,4,.22,5.6a33,33,0,0,0,12.27-15.9c7.3-19.89-3.93-43.77-4.4-44.78l-.24.11c-.7,3-1.41,6.17-2.11,9.41,2.66,8.13,5.73,21.78,1.47,33.34A27.34,27.34,0,0,1,253.14,2781.48Z"/><path class="cls-3" d="M253.17,2782.86c.15,6.73.69,11.35.69,11.35H371.93a65.24,65.24,0,0,0,.13-11.35Z"/><path class="cls-3" d="M295.32,2727.24a3.44,3.44,0,0,0,.84-.1,58.51,58.51,0,0,1,27.37-.57,3.37,3.37,0,1,0,1.8-6.49,64.79,64.79,0,0,0-30.86.54,3.36,3.36,0,0,0,.85,6.62Z"/><path class="cls-3" d="M293.38,2713.64a3,3,0,0,0,.84-.11,58.33,58.33,0,0,1,27.38-.56,3.37,3.37,0,1,0,1.79-6.49,64.68,64.68,0,0,0-30.85.53,3.37,3.37,0,0,0,.84,6.63Z"/><path class="cls-3" d="M300.36,2737.91a3.54,3.54,0,0,0,.85-.11,59.07,59.07,0,0,1,27.38-.56,3.37,3.37,0,0,0,1.79-6.49,64.72,64.72,0,0,0-30.86.53,3.37,3.37,0,0,0,.84,6.63Z"/><path class="cls-3" d="M306.3,2750a3.46,3.46,0,0,0,.84-.11,58.91,58.91,0,0,1,27.38-.56,3.37,3.37,0,0,0,1.79-6.49,64.68,64.68,0,0,0-30.85.53,3.37,3.37,0,0,0,.84,6.63Z"/><path class="cls-16" d="M409.75,2031.67q-5,1.13-10.13,2.15c-43.37,8.77-88.89,12.32-120.74,5.59-15.72-3.33-25.78-20.37-32.18-39.41-1.75-5.19-2.94-10.61-4.46-15.8-15.16-51.62-7.43-94.35-7.43-94.35l252.74-4.17S495.34,1898.4,504,1915c6.27,12,13,26,17.52,38.7,0,0,0,0,0,0,2.7,7.58,4.63,14.69,5.21,20.58C528.6,1993.13,472.85,2017.62,409.75,2031.67Z"/><path class="cls-16" d="M392.33,2288.85c-.19,6.38-.39,12.17-.66,17.22-.08,1.29-.16,2.62-.24,4.07-4.54,63.09-43,277.26-55.18,344.19-.43,2.23-.79,4.3-1.14,6.18-1.64,8.92-2.58,14-2.58,14l-65-4.62s-.24-5.05-.59-13.93c-.12-2.15-.19-4.5-.31-7-1.53-36.91-4.78-116.09-7.24-185.44-3.37-94.17,9-147.91,9-147.91s7.05-21.21,1.68-76.32c-4.42-45.68-20.11-191-26.49-239.49-1.29-9.79-1.87-17.54-1.87-17.54s101.83-26.69,127.54,5.44a25.74,25.74,0,0,1,4.54,8.65c2.47,8.18,4.89,21.26,7.13,37.54C390.22,2101.41,393.94,2225.05,392.33,2288.85Z"/><path class="cls-11" d="M351.39,2301.61a55.18,55.18,0,0,0,39.74-4.13,3.13,3.13,0,1,0-3.13-5.43,49.72,49.72,0,0,1-36.27,3.13,3.13,3.13,0,0,0-1.85,6C350.39,2301.33,350.89,2301.47,351.39,2301.61Z"/><path class="cls-11" d="M336.23,2654.33c-.4,2.23-.78,4.28-1.12,6.16l-68.19-4.57c-.09-2.13-.18-4.48-.29-7Z"/><path class="cls-11" d="M266.05,2074.84a2.06,2.06,0,0,1-.46-4.06,65.85,65.85,0,0,0,23.82-12.7c16-13.16,24.89-32,26.37-56a2.05,2.05,0,1,1,4.1.25c-1.93,31.44-16.3,49.45-28,59-12.71,10.39-24.85,13.28-25.36,13.4A2.4,2.4,0,0,1,266.05,2074.84Z"/><path class="cls-5" d="M438.44,1454.13s-81.25,5.76-113.52,23.77c-43.62,24.36-46.78,176.32-61.92,241.89s-47.37,182.47-26.21,235.53c11.49,28.8,234.25,33.34,283.49,15.88,26-9.2,9-186.22,31.55-259.79s47.3-122.69,43.89-155.55c-2.77-26.7-78.56-67.26-78.56-67.26Z"/><path class="cls-5" d="M250.32,1933.17a2.58,2.58,0,0,1-2.57-2.52c-1.25-59.83,8.6-120.37,30.1-185.07,24.33-73.21,30.76-184,30.82-185.07a2.57,2.57,0,0,1,5.14.29c-.06,1.12-6.52,112.54-31.07,186.4-21.31,64.14-31.07,124.11-29.84,183.34a2.58,2.58,0,0,1-2.52,2.63Z"/><path class="cls-5" d="M345,1876.39c26.36,0,55.8-7.46,87.06-22.22a349.12,349.12,0,0,0,63.37-38.85,2.65,2.65,0,1,0-3.34-4.11,344.33,344.33,0,0,1-62.39,38.22c-33,15.55-81.2,30.78-123.74,15a2.65,2.65,0,1,0-1.83,5A117.26,117.26,0,0,0,345,1876.39Z"/><path class="cls-5" d="M350.34,1921.61a164.35,164.35,0,0,0,67.3-14.78c20.79-9.41,32.84-19.76,33.34-20.2a2.65,2.65,0,1,0-3.47-4c-.47.41-48.08,40.81-115.27,32.58a2.65,2.65,0,1,0-.65,5.26A154,154,0,0,0,350.34,1921.61Z"/><path class="cls-5" d="M469.1,1525.86c23.55,0,42.42-15.26,43.28-16a2.65,2.65,0,1,0-3.36-4.1c-.31.26-21.78,17.52-46,14.39-13.86-1.8-26.1-9.9-36.39-24.08a2.65,2.65,0,1,0-4.28,3.12c11.18,15.42,24.65,24.24,40,26.22A53.37,53.37,0,0,0,469.1,1525.86Z"/><path class="cls-3" d="M559.84,1386s7,1.49,7.3,10.74S561,1420.61,552,1417.62,559.84,1386,559.84,1386Z"/><path class="cls-6" d="M444.72,1339.84s-14.45-31.07-4.83-45.49,15.46-6.25,15.46-6.25-5.64-18.12,7.32-22.79,18.67,6.65,18.67,6.65,16.15-22.69,33.12-15.1,7.7,20.62,7.7,20.62,30-17.07,43.24-4.12,1.54,22.28,1.54,22.28,29.51-11.59,37.47,13.13-16.34,26.06-16.34,26.06,31.38,6.63,18.75,20.36-45.31-6.2-45.31-6.2S462.44,1325,444.72,1339.84Z"/><path class="cls-3" d="M429.88,1457.41c1.12,13.44,18.8,31.73,29.34,36.74,16.38,7.8,34.18,8.34,49,2.84l5.5-25.59,1.12-5.21,2.12-9.9-53.62-53.86-3.1-3.11-2.08-2.1-1.29,2.07-1.47,2.39.09,1.15C445.73,1426.73,442.81,1441.45,429.88,1457.41Z"/><path class="cls-3" d="M509.35,1491.63c-23.7-11.21-32.76-35.94-36-49.31,10.19,12.52,23.58,22.09,37.2,23.62a37.21,37.21,0,0,0,4.28.24Z"/><path class="cls-3" d="M514.82,1466.19a39.65,39.65,0,0,1-4.29-.24c-26.62-3-52.4-36.77-55.06-63.12,0-.38-.07-.77-.09-1.15-.07-.88-.12-1.75-.13-2.61l-.35-.13h0c-16.68-5.67-30.27-28.37-22-42.07,4.46-7.42,9.91-8.78,14.54-8.06a95.8,95.8,0,0,1,.7-21.53c4.29-25.12,30.42-56.28,76.54-36.85s53.67,57.86,44.82,80.65c-5.06,13-9.37,26.37-12.14,35.46-.92,3-1.67,5.62-2.23,7.53-.69,2.38-1.06,3.75-1.06,3.75C552.68,1439,540.45,1466.18,514.82,1466.19Z"/><path class="cls-3" d="M509.18,1411.58s-2.09,16.7,11.64,20.05,17.7-10,17.7-10Z"/><path class="cls-6" d="M509.19,1363.73a5,5,0,0,1-1.82-1.6,5.07,5.07,0,0,1,1.25-7.05c.55-.38,13.5-9.23,25.81-.73a5.06,5.06,0,0,1-5.75,8.33c-6.6-4.55-14.19.65-14.27.7A5.07,5.07,0,0,1,509.19,1363.73Z"/><path class="cls-6" d="M559.77,1378.59a5.07,5.07,0,0,1-2.64-3.47c-.88-4.2-7.65-6.26-9.41-6.58a5.06,5.06,0,0,1,1.82-10c5.59,1,15.57,5.22,17.5,14.48a5.06,5.06,0,0,1-3.93,6A5,5,0,0,1,559.77,1378.59Z"/><path class="cls-6" d="M551.83,1391.15c-1.18,3.27-3.51,5.43-5.21,4.82s-2.13-3.76-1-7,3.5-5.44,5.2-4.83S553,1387.87,551.83,1391.15Z"/><path class="cls-6" d="M540.41,1384.91a1,1,0,0,1-.35-.46.91.91,0,0,1,.56-1.17c.4-.14,9.89-3.39,15.63,3.53a.92.92,0,0,1-1.42,1.18c-4.92-5.94-13.51-3-13.6-3A.91.91,0,0,1,540.41,1384.91Z"/><path class="cls-6" d="M447.39,1348.81s10.91.89,16.35,8.42,2.23,23.81,11,26.25,1.24-30.27,6.92-35.28,22.82,2.82,24.81-20.31c1.13-13.06,46.17,2.25,53.63,13.34s19.2,21.22,19.84,6.71-26.29-58-55.3-64-60.36-4.91-73.27,22.83S447.39,1348.81,447.39,1348.81Z"/><path class="cls-3" d="M441.27,1374.06a1.75,1.75,0,0,1-.55-.44,1.84,1.84,0,0,1,.2-2.59,12.62,12.62,0,0,1,12.26-1.81,1.84,1.84,0,0,1-1.27,3.46,9,9,0,0,0-8.6,1.14A1.85,1.85,0,0,1,441.27,1374.06Z"/><path class="cls-6" d="M530.57,1409.31a1.81,1.81,0,0,1-.88-1,1.84,1.84,0,0,1,1.09-2.36l11.55-4.25-7.7-5.06a1.82,1.82,0,0,1-.81-1.31l-2.94-23.28a1.84,1.84,0,1,1,3.65-.46l2.83,22.44,10,6.6a1.85,1.85,0,0,1-.38,3.27l-15,5.5A1.81,1.81,0,0,1,530.57,1409.31Z"/><path class="cls-6" d="M523.13,1381.39c-1.18,3.27-3.51,5.43-5.21,4.82s-2.13-3.76-.95-7,3.51-5.43,5.2-4.82S524.3,1378.12,523.13,1381.39Z"/><path class="cls-6" d="M510,1375.89a.92.92,0,0,1,0-1.64c.38-.19,9.37-4.61,15.94,1.53a.92.92,0,1,1-1.26,1.34c-5.64-5.27-13.78-1.27-13.86-1.23A.9.9,0,0,1,510,1375.89Z"/><path class="cls-2" d="M515.06,1576.85l1.08,3.9,1,3.55,2.08,6.92c1.38,4.59,2.88,9.1,4.38,13.61,3,9,6.25,17.92,9.67,26.79s7.05,17.69,10.94,26.45,7.92,17.51,12.34,26.16c8.85,17.29,18.57,34.53,30.48,51.29a286.11,286.11,0,0,0,19.6,24.85c1.77,2,3.69,4.06,5.56,6.07,1,1,2,2,2.94,3l1.48,1.49,1.54,1.47c4.05,3.95,8.46,7.8,13.11,11.54a141.13,141.13,0,0,0,32.82,19.87,111.65,111.65,0,0,0,20.33,6.53l1.34.3.34.07.91.18c.78.14,1.57.26,2.36.37,1.58.23,3.17.39,4.76.49s3.43.06,5.14,0a49.5,49.5,0,0,0,5.16-.5c1.71-.29,3.43-.64,5.12-1.07.84-.22,1.68-.45,2.51-.7s1.54-.53,2.3-.81c1.53-.58,3-1.22,4.51-1.91.36-.17.75-.35,1.07-.52l.95-.51c.63-.35,1.26-.71,1.88-1.08,1.24-.73,2.46-1.51,3.63-2.32,1-.72,2-1.48,2.92-2.25l1.41-1.18.7-.61.34-.3.28-.27c.74-.71,1.48-1.44,2.19-2.18l1.07-1.12.53-.57c.18-.2.34-.38.47-.54,1.12-1.32,2.21-2.69,3.25-4.07a76,76,0,0,0,7.61-13.26l1.21-2.81c.38-.93.68-1.76,1-2.65.7-1.8,1.19-3.36,1.76-5a155.54,155.54,0,0,0,4.41-17.57,284.63,284.63,0,0,0,4-30.72,547.58,547.58,0,0,0,1.29-57c-.17-9.31-.66-18.56-1.19-27.8-.29-4.62-.66-9.23-1-13.85-.18-2.31-.41-4.62-.63-7l-.35-3.49-.39-3.64a34.32,34.32,0,0,0-68.33.88l-.05.8-2.1,25.72c-.66,8.65-1.49,17.28-2.24,25.85-1.66,17.1-3.47,34.1-6,50.06-1.29,7.93-2.72,15.66-4.47,22.25a71.4,71.4,0,0,1-2.59,8.31c-.21.43-.41,1-.57,1.27s-.16.36-.23.46l-.16.24c-.11.16-.12-.13.93-1.64a11.56,11.56,0,0,1,1.14-1.47l.19-.23.23-.27.48-.52q.5-.53,1-1l.13-.12.18-.17.37-.34c.25-.23.5-.44.76-.66.52-.42,1-.82,1.61-1.2a26,26,0,0,1,2.19-1.46c.38-.22.77-.44,1.16-.64l1.28-.65a26.69,26.69,0,0,1,3-1.28c.5-.18,1-.35,1.52-.5s1.12-.36,1.7-.51a27.52,27.52,0,0,1,3.48-.71c1.16-.16,2.31-.33,3.49-.38a33.14,33.14,0,0,1,3.46,0,27,27,0,0,1,3.1.27c.51.08,1,.17,1.53.28l.37.08c.19,0,.14,0,.13,0l-.07,0-.29-.1a28.18,28.18,0,0,1-5.08-2A60.57,60.57,0,0,1,686,1716.7c-2.25-1.93-4.56-4-6.84-6.38l-.86-.86-.86-.92-1.72-1.83c-1.14-1.29-2.31-2.51-3.44-3.87a198.78,198.78,0,0,1-13.34-17.48c-2.15-3.14-4.27-6.36-6.33-9.67s-4.14-6.68-6.16-10.09q-6-10.3-11.62-21.25c-3.68-7.29-7.38-14.67-10.83-22.23-1.75-3.76-3.45-7.57-5.12-11.4s-3.35-7.66-5-11.52c-3.25-7.72-6.35-15.54-9.4-23.36-1.52-3.91-3-7.84-4.42-11.73l-2.12-5.82-1.92-5.36-.51-1.44a42.19,42.19,0,0,0-80.42,25.36Z"/><path class="cls-12" d="M568.09,1699.24a2.57,2.57,0,0,1-2.88-2.9c.13-.95,13.1-95,18.84-121.44a2.57,2.57,0,1,1,5,1.09c-5.7,26.29-18.64,120.11-18.76,121A2.58,2.58,0,0,1,568.09,1699.24Z"/><path class="cls-12" d="M722.67,1639a69.93,69.93,0,0,0,9.71-1.61,90.14,90.14,0,0,0,24.54-9.94,2.37,2.37,0,1,0-2.51-4c-.4.25-39.87,24.37-64.33.42a2.37,2.37,0,0,0-3.32,3.38C696,1636.33,708.31,1640.32,722.67,1639Z"/><path class="cls-12" d="M665,1748.27a2.37,2.37,0,0,0,2.16-2.51c-1-16.06,10.59-33.89,10.7-34.06a2.37,2.37,0,1,0-4-2.61c-.51.78-12.57,19.34-11.48,37a2.38,2.38,0,0,0,2.52,2.22Z"/><path class="cls-12" d="M648.55,1729.29a2.34,2.34,0,0,0,1.62-.85h0c.08-.1,7.9-9.34,23.71-11.66a2.37,2.37,0,1,0-.69-4.69c-17.72,2.6-26.33,12.9-26.68,13.34a2.37,2.37,0,0,0,2,3.86Z"/><path class="cls-18" d="M466.06,1994.12h0L303,1618.63l375.48-163.05,49.46,113.88s16.61,20.22,38.27,20c19.27-.24,34.51-19.07,37.63-23.22l.53-.7a.28.28,0,0,1,.06-.09h0a62.16,62.16,0,1,1,42.84,98.66h-.11l-.87-.11c-5.17-.54-29.33-2.27-42.66,11.66-15,15.64-11.55,41.59-11.55,41.59l49.46,113.88Z"/><path class="cls-5" d="M710.27,1529.85s14.66-6.14,20.79,3.8-3.79,35.64-7.88,44.43-10-13.27-7.43-23.08-.51-15.26-.51-15.26Z"/><path class="cls-5" d="M732,1561.74s15.64-7,21.77,3-3.78,35.64-7.88,44.43-10-13.27-7.43-23.08-.87-14-.87-14Z"/><path class="cls-5" d="M745.37,1575.1s13.81-6.15,19.22,2.62-3.34,31.49-7,39.26-8.85-11.73-6.57-20.39-.77-12.42-.77-12.42Z"/><path class="cls-5" d="M719.37,1546.91s15.64-7,21.77,3-3.79,35.65-7.88,44.44-10-13.27-7.43-23.08-.88-14.06-.88-14.06Z"/><path class="cls-3" d="M360.12,1633.42c-.75.13-1.75.35-2.65.53l-2.78.61-5.62,1.18q-5.61,1.24-11.26,2.38c-7.5,1.57-15,3.08-22.45,4.52-14.89,2.85-29.7,5.37-43.95,7-3.56.4-7.07.8-10.53,1.06s-6.84.47-10.12.6-6.46.13-9.44,0a69.91,69.91,0,0,1-8.14-.67,28.24,28.24,0,0,1-5.5-1.29c-.5-.23-.91-.42-.86-.53s0,0,0,0a.37.37,0,0,1,.18,0,3,3,0,0,1,.33.08l.18.07.21.11.38.2a21.15,21.15,0,0,1,3.48,2.43,23.79,23.79,0,0,1,3.87,4.21,25.81,25.81,0,0,1,3,5.37,24.52,24.52,0,0,1,1.51,5,22.57,22.57,0,0,1,.41,3.61c0,.9,0,1.66,0,2.1,0,1-.09,1.19.07,1,.29-.36,1.12-2,2.34-3.92s2.79-4.22,4.59-6.59c3.59-4.76,7.88-10,12.52-15.09s9.57-10.4,14.71-15.59,10.42-10.4,15.79-15.6c10.79-10.36,21.94-20.68,33.24-30.92l17-15.35,16.82-15.06.47-.42a40.78,40.78,0,0,0-51.65-63l-2.64,2-2.49,1.9-4.89,3.8c-3.24,2.54-6.41,5.14-9.59,7.72s-6.33,5.2-9.45,7.86-6.23,5.31-9.31,8c-12.34,10.82-24.42,22-36.19,33.88a491,491,0,0,0-34.43,38.07,270.88,270.88,0,0,0-16.38,22.57c-2.67,4.16-5.31,8.61-7.89,13.59a104.49,104.49,0,0,0-7.34,17.73,74.94,74.94,0,0,0-2.69,12.56,61.6,61.6,0,0,0-.48,8,57.88,57.88,0,0,0,.83,9.53,54.45,54.45,0,0,0,3,10.74,52,52,0,0,0,5.81,10.6,51.42,51.42,0,0,0,7.8,8.64,53.55,53.55,0,0,0,8.24,6l1,.58.48.28.37.19,1.5.76c1,.48,2,1,3,1.42l2.9,1.21c1,.41,1.86.68,2.8,1a83.75,83.75,0,0,0,10.51,2.85,102.41,102.41,0,0,0,18,1.85,160.34,160.34,0,0,0,29.82-2.42,265.28,265.28,0,0,0,26.22-5.84,403.13,403.13,0,0,0,48-16.7q11.53-4.78,22.71-10.16,5.58-2.73,11.12-5.54c1.85-1,3.68-1.94,5.52-2.93l2.77-1.49,2.89-1.61a24.23,24.23,0,0,0-15.93-45Z"/><path class="cls-5" d="M353.44,1643.16c1.29-4.72,9.05-8.15,13.65-12.69,6.07-6,17-13.07,24.23-15.46,10.84-3.57,43.35-12.36,51.62-7.71s-19.19,14.39-24.78,16.5a22.7,22.7,0,0,0-8.6,5.61s64.72-17.48,70.86-13.06-29.68,18.06-38.56,21.37c0,0,49.5-10.47,52.51-6.44,6.05,8.1-48.57,21.31-48.57,21.31s42.09-6.69,43,.26c1,7.36-44.14,14.4-44.14,14.4s28.07-.35,31.58,5.29-55.37,10.92-64.53,10.65-31.3,6.49-43,4.12C360.69,1685.7,349.37,1658.11,353.44,1643.16Z"/><path class="cls-16" d="M290.35,1617.46a2.05,2.05,0,0,0,2.31,0c.5-.35,50.28-34.73,71.22-51.77a2.05,2.05,0,0,0-2.59-3.18c-20.81,16.94-70.46,51.23-71,51.57a2.05,2.05,0,0,0-.52,2.85A2,2,0,0,0,290.35,1617.46Z"/><path class="cls-16" d="M341.55,1582a2,2,0,0,0,1.17.35l18.48-.18a2.05,2.05,0,1,0,0-4.1l-18.48.18a2.05,2.05,0,0,0-1.13,3.75Z"/><path class="cls-16" d="M215.92,1653.67a2,2,0,0,0,1.74.09c13.23-5.87,35.15-2.19,35.37-2.15a1.94,1.94,0,0,0,.66-3.82c-.95-.17-23.3-3.93-37.6,2.42a1.94,1.94,0,0,0-1,2.56A2,2,0,0,0,215.92,1653.67Z"/><path class="cls-16" d="M239.42,1650.21a1.94,1.94,0,0,0,2.55-2.81c-8.8-12.44-19.65-12.35-20.11-12.34a1.95,1.95,0,0,0,.07,3.89c.38,0,9.32,0,16.87,10.69A2,2,0,0,0,239.42,1650.21Z"/><path class="cls-3" d="M2272.46,2615.86l14.18,49c-17.1,14.38-33.94,12.66-50.71,6.73l-17.19-47Z"/><path class="cls-3" d="M2317.46,2713.14l-6.69,11.69-2.23,3.9L2278.07,2782a25,25,0,0,1-22,12.57c-16.31-.18-43.06-.39-63.37-.1-4.85.07-6.79-2.55-6.79-6.56,0-11.18,15.39-33.24,25.52-38,0,0,16.77-59,11-72.71-9.93-23.44,4.65-24.63,18.86-17.47,7.23,3.63,9.16,9,14.52,9.09,8.41.11,27-8.46,27-8.46s6.78-9.09,9-.13a67.37,67.37,0,0,0,3.75,9.44c.91,2,1.94,4.21,3.05,6.53,5.09,10.6,11.77,23.46,15.66,30.87Z"/><path class="cls-3" d="M2310.77,2724.83l-2.23,3.9c-11.56-8.29-17.12-21.85-16.17-39.7a94.66,94.66,0,0,1,3.19-19.33c.91,2,1.94,4.21,3.05,6.53a84.31,84.31,0,0,0-1.77,13.14C2296,2705.53,2300.69,2717.41,2310.77,2724.83Z"/><path class="cls-3" d="M2317.46,2713.14,2278.07,2782a25,25,0,0,1-22,12.57c-16.31-.18-43.06-.39-63.37-.1-4.85.07-6.79-2.55-6.79-6.56l69.8-.23a20.81,20.81,0,0,0,18-10.4l40.55-70.17Z"/><path class="cls-3" d="M2240.92,2695.71a3.86,3.86,0,0,0,3.11-3.27c.1-1.8-1.55-3.21-3.69-3.13l-15.12.52c-2.14.07-3.95,1.6-4,3.4s1.55,3.2,3.68,3.13l15.13-.53A4.94,4.94,0,0,0,2240.92,2695.71Z"/><path class="cls-3" d="M2230.18,2745a3.85,3.85,0,0,0,3.11-3.27c.1-1.8-1.55-3.2-3.69-3.12l-15.12.52c-2.14.07-3.95,1.59-4.05,3.4s1.55,3.2,3.68,3.12l15.13-.52A4.26,4.26,0,0,0,2230.18,2745Z"/><path class="cls-3" d="M2233.7,2731.77a3.83,3.83,0,0,0,3.11-3.27c.1-1.8-1.55-3.2-3.69-3.12l-15.12.52c-2.13.07-3.95,1.59-4.05,3.39s1.55,3.21,3.69,3.13l15.12-.52A4.18,4.18,0,0,0,2233.7,2731.77Z"/><path class="cls-3" d="M2236.1,2719.83a3.85,3.85,0,0,0,3.11-3.27c.1-1.8-1.55-3.2-3.69-3.13l-15.12.53c-2.14.07-4,1.59-4.05,3.39s1.55,3.21,3.69,3.13l15.12-.52A4.18,4.18,0,0,0,2236.1,2719.83Z"/><path class="cls-3" d="M2238.5,2707.89a3.86,3.86,0,0,0,3.11-3.27c.1-1.8-1.55-3.2-3.69-3.13l-15.12.53c-2.14.07-4,1.59-4.05,3.39s1.55,3.21,3.68,3.13l15.13-.52A5,5,0,0,0,2238.5,2707.89Z"/><polygon class="cls-3" points="1954.75 2648.69 1950.87 2718.05 1898.56 2718.53 1893.97 2648.09 1954.75 2648.69"/><path class="cls-3" d="M1775.21,2794.63l186.69-.16c1.38-2.52,2.14-6.1,2.44-10.37,1.16-15.79-3.9-41-6.38-56.87-.3-1.86-.56-3.59-.76-5.16a53.78,53.78,0,0,1-.56-6.49c0-13-11.49-10.73-11.49-10.73-18.87,18.54-40.29-9.23-52.77-.1,0,0-5.38,3.86-20.19,17.2s-40,22.17-61.45,31.17c-27.7,11.6-35.54,23.18-37.07,31.15A14.54,14.54,0,0,0,1775.21,2794.63Z"/><path class="cls-3" d="M1775.21,2794.63l186.69-.16c1.38-2.52,2.14-6.1,2.44-10.37l-190.67.17A14.54,14.54,0,0,0,1775.21,2794.63Z"/><path class="cls-3" d="M1942.85,2794.49h5.55c-5.54-6.31-10.73-16-10.06-29.88.88-18.45,11.94-30.89,19.62-37.37-.3-1.86-.56-3.59-.76-5.16-8.28,6.34-22.24,20.22-23.31,42.31A45.33,45.33,0,0,0,1942.85,2794.49Z"/><path class="cls-3" d="M1875.37,2733a3.07,3.07,0,0,0,.73-6.06l-11.66-2.88a3.08,3.08,0,1,0-1.48,6l11.66,2.88A2.41,2.41,0,0,0,1875.37,2733Z"/><path class="cls-3" d="M1886.1,2722.89a3.08,3.08,0,0,0,.73-6.07l-11.66-2.88a3.08,3.08,0,1,0-1.48,6l11.67,2.89A3.06,3.06,0,0,0,1886.1,2722.89Z"/><path class="cls-3" d="M1863.71,2739.75a3.08,3.08,0,0,0,.74-6.06l-11.67-2.88a3.08,3.08,0,0,0-1.48,6l11.67,2.88A3.18,3.18,0,0,0,1863.71,2739.75Z"/><path class="cls-3" d="M1852.06,2746.28a3.07,3.07,0,0,0,.73-6.06l-11.67-2.89a3.07,3.07,0,1,0-1.47,6l11.66,2.89A3.2,3.2,0,0,0,1852.06,2746.28Z"/><path class="cls-3" d="M1839.35,2752.32a3.08,3.08,0,0,0,.73-6.07l-11.67-2.88a3.07,3.07,0,1,0-1.47,6l11.66,2.89A3.2,3.2,0,0,0,1839.35,2752.32Z"/><path class="cls-3" d="M1825.56,2757.47a3.07,3.07,0,0,0,.73-6.06l-11.66-2.89a3.08,3.08,0,1,0-1.48,6l11.67,2.89A3.12,3.12,0,0,0,1825.56,2757.47Z"/><path class="cls-2" d="M2030.86,1986.31c3.16.79,6.34,1.55,9.52,2.28,40.73,9.3,83.48,13.06,113.4,5.92,14.77-3.52,24.21-21.6,30.22-41.79,1.64-5.51,3.82-11.07,4.19-16.76,3.67-56.11-10.16-79.92-10.16-79.92l-220.24-24.57s-7.32,13.49-15.44,31.06c-5.89,12.73-12.2,27.6-16.46,41,0,0,0,0,0,0-2.54,8-4.35,15.58-4.89,21.83C1919.23,1945.44,1971.6,1971.4,2030.86,1986.31Z"/><path class="cls-2" d="M2285.3,2621.3c-18.63,1.85-35.53,4-54.08,6.59-7.13,1-14.7,2.28-21.84,3.29-1.72-4.35-4.55-13.33-6.47-18.27-.51-1.25-1-2.51-1.49-3.8-35.56-90.58-102.66-263.87-115.64-314.8-.31-1.26-.66-2.59-1-4-2.78-11.3-5.92-25.57-9.21-41.84-14.16-70-31.21-176.54-34.94-239.63-1-17.41-1.22-31.49-.31-40.51a26.88,26.88,0,0,1,2.9-9.92c20.11-38.78,132.11-30,132.11-30s.43,6.12,1.13,16.59c3.38,51.72,17.18,206.18,22,254.57,5.84,58.46,17.57,79,17.57,79s24,53.33,40,152c9.6,59.45,20.11,125.83,26.9,169.2.19,1.34.43,2.63.62,3.93C2284.16,2607.74,2284.75,2617.77,2285.3,2621.3Z"/><path class="cls-2" d="M2001.05,2171.84c-18.08,55.61-16.4,83.37-16.4,83.37s14.2,57-.82,155.79c-11.29,74.16-18.12,177.52-20.86,224.42-.08,1.41-.16,2.78-.24,4.08-.74,13.09-1.09,20.82-1.09,20.82l-72.31,7.88s-.59-8.47-1.57-23.06c-.08-1.29-.2-2.66-.28-4-5.21-77.57-19.52-300.69-18.31-389.78.12-10.47.47-19.1,1.1-25.41.47-4.67,1.18-11,2.16-18.63,8.58-69,36-246.65,55.29-307.31,15.25-48,122.58,1.06,122.58,1.06S2019.16,2116.24,2001.05,2171.84Z"/><path class="cls-5" d="M1807.22,1624.89c.24.69.53,1.65.79,2.49l.78,2.65,1.6,5.32,3.18,10.68q3.15,10.68,6.42,21.19c4.36,14,8.88,27.75,13.89,40.48,1.24,3.18,2.55,6.28,3.86,9.27s2.64,5.88,4,8.56,2.74,5.19,4.09,7.34a37.89,37.89,0,0,0,3.69,5.08l.36.41.3.29.15.15.11.08.2.18c.19.09.21,0-.19-.37l-.51-.39c-.23-.16-.46-.33-.7-.48-.44-.29-1-.65-1.56-1a26.79,26.79,0,0,0-3.79-1.79,28,28,0,0,0-9.12-1.81,26.38,26.38,0,0,0-7.58.88,22.29,22.29,0,0,0-4.28,1.57,27.75,27.75,0,0,0-2.51,1.43c-.09,0,.24-.32.7-.89,1-1.16,2.39-3.14,3.89-5.38,3-4.57,6.22-10.3,9.34-16.26s6.16-12.35,9.18-18.82c6-13,11.72-26.55,17.37-40.24s11.14-27.61,16.66-41.56l8.24-21,8.24-20.74.15-.36a33.87,33.87,0,0,1,64.38,20.56c-.51,2.11-1,4-1.47,5.9l-1.49,5.74c-1,3.82-2.07,7.6-3.14,11.38q-3.24,11.34-6.79,22.58-7.11,22.49-15.5,44.75-4.2,11.16-8.83,22.27c-3.06,7.43-6.35,14.82-9.8,22.27s-7.19,14.88-11.27,22.44c-2,3.79-4.23,7.58-6.57,11.43s-4.87,7.77-7.73,11.81a119.54,119.54,0,0,1-10.28,12.75,82.64,82.64,0,0,1-7.51,7.17,61.92,61.92,0,0,1-12,8,51.8,51.8,0,0,1-9.62,3.69,46.9,46.9,0,0,1-13.27,1.61,44.43,44.43,0,0,1-14.75-2.87,45,45,0,0,1-6.4-3c-1-.56-2-1.15-2.79-1.72l-1.28-.89-.64-.45-.3-.22-.16-.13a71.15,71.15,0,0,1-8.76-8l-1.73-2-.85-1-.78-1-1.52-1.93-1.39-1.88a105.09,105.09,0,0,1-8.61-14.36,144,144,0,0,1-5.93-13.38c-1.68-4.36-3.15-8.63-4.49-12.85s-2.46-8.39-3.54-12.53a357.34,357.34,0,0,1-8.65-48.79c-.9-8-1.53-16.07-2-24.1-.2-4-.36-8-.43-12.06,0-2,0-4,0-6.07V1634l.05-3.22a24.79,24.79,0,0,1,48.19-7.78Z"/><path class="cls-5" d="M1855.22,1748.44a1.59,1.59,0,0,1-1.59-1.13c-3.61-12.13-18.39-32.82-18.54-33a1.58,1.58,0,0,1,2.58-1.84c.62.86,15.23,21.33,19,34a1.61,1.61,0,0,1-1.45,2Z"/><path class="cls-5" d="M1856.4,1729.93a1.57,1.57,0,0,1-1.08-.36h0s-4.47-3.61-13.44-5.93a1.59,1.59,0,1,1,.79-3.07c9.73,2.52,14.47,6.39,14.67,6.56a1.58,1.58,0,0,1,.21,2.23A1.62,1.62,0,0,1,1856.4,1729.93Z"/><path class="cls-14" d="M1934,1881.53c60.64.6,151,20,246.71-19.31-21.52-55.82-38-155.24-38.23-156.69a336.72,336.72,0,0,1-4.52-33.93c-.42-4.56-.78-9.3-1.09-14.17s-.56-9.7-.76-14.7q-.29-7.1-.42-14.41c-.07-3.1-.1-6.24-.12-9.38q0-2.78,0-5.55v-1c0-1.42,0-2.83,0-4.25,0-3.13.1-6.28.18-9.4.19-7.42.52-14.8,1-22.06,2.94-45-10-90-55.07-89.19-3.29,0-6.51.14-9.64.25-21.21.73-38.52,2.4-43.33,2.89l-1.32.14-82.21,37-7.83,3.52a309.87,309.87,0,0,0-27.81,15,96.3,96.3,0,0,0-15.32,11.4c-16.92,16-11.86,30.69-7.17,60.42l.24,1.54c0,.17.05.35.08.51.77,5.07,1.34,10.14,1.75,15.21.48,5.67.76,11.33.94,16.9.36,11.68.25,23,.34,33.4,0,5,.13,9.88.35,14.43a134.34,134.34,0,0,0,1.37,14.49,49.31,49.31,0,0,0,3.76,13.22,24.27,24.27,0,0,0,2.19,3.81,66.54,66.54,0,0,0,6.67,8,97.06,97.06,0,0,0,11.89,10.34,131.73,131.73,0,0,0,17.33,10.88c1.5.78,2.37,1.18,2.37,1.18l.06.28c.19.72.35,1.48.53,2.29.68,3.07,1.41,6.75,2.16,10.94C1939.47,1777.37,1952,1822,1934,1881.53Z"/><path class="cls-17" d="M1890.81,1700.1,2113,1621.4a61.77,61.77,0,0,1-18.92-7.85l-203.6,72.12C1890.49,1690.71,1890.59,1695.55,1890.81,1700.1Z"/><path class="cls-17" d="M1895.94,1727.81l240.2-85.08q-.29-7.1-.42-14.41l-243.54,86.27A49.31,49.31,0,0,0,1895.94,1727.81Z"/><path class="cls-17" d="M1904.8,1739.65a97.06,97.06,0,0,0,11.89,10.34L2138,1671.6c-.42-4.56-.78-9.3-1.09-14.17Z"/><path class="cls-5" d="M1894.28,1557.69c4.55,19.42,4.3,52.56-5.09,77.68-.42-5.07-1-10.15-1.76-15.21,0-.17,0-.34-.08-.51l-.24-1.54C1882.41,1588.38,1877.37,1573.7,1894.28,1557.69Z"/><path class="cls-5" d="M2050.93,1565.16c15.21,36.56,61.42,66.76,84.68,53.78,0-2.18,0-4.34,0-6.52,0-1.42,0-2.84.05-4.26.11-10.54.49-21.14,1.17-31.46,2.93-45-10-90-55.08-89.19-3.28.06-6.5.14-9.63.25C2051.24,1500.37,2033.43,1523.06,2050.93,1565.16Z"/><path class="cls-17" d="M2063.38,1730.26a2.1,2.1,0,0,1-1.35,1.58,2.24,2.24,0,0,1-1.06.09c-.39-.08-38.53-6.73-74.67,14.6-18.36,10.84-35.26,16.39-49.32,18.09-.17-.81-.35-1.57-.52-2.29,0-.1,0-.19-.07-.28s-.87-.4-2.36-1.18c13.87-1.27,31.13-6.68,50.16-17.91,37.51-22.14,75.91-15.41,77.52-15.11A2.06,2.06,0,0,1,2063.38,1730.26Z"/><path class="cls-17" d="M1961.67,1641c-24.78,8.77-39.66-16-39.81-16.27a2.07,2.07,0,1,1,3.57-2.1c.56.94,13.35,22.08,34.85,14.46,22.57-8,59.44-59.85,59.81-60.37a2.08,2.08,0,0,1,3.39,2.4C2021.94,1581.24,1985.46,1632.52,1961.67,1641Z"/><path class="cls-2" d="M1949.39,1512.93s-7.63,20.34-29.9,2.46c0,0-34.78,16.35-40.77-25.31,0,0-26.47-6.89-14.63-37.24,0,0-28.17-3.38-21.63-41.47,0,0-20.58-16.27-16.25-41.74,5.13-30.22,34.14-26.62,34.14-26.62s-13.27-23.5,12.63-37.75c24.86-13.68,41.56,6.71,41.56,6.71s5.22-24.6,28.31-26.73c30.74-2.85,34,25.1,34,25.1s19.13-19.79,39.38-5.69,10.06,38.36,10.06,38.36,25.18-7.66,31,16.32-7.58,32.28-7.58,32.28,14,19.79-11.73,41.88c0,0,29,43.49-26.9,45.49C1974.15,1480.31,1949.39,1512.93,1949.39,1512.93Z"/><path class="cls-5" d="M1948.55,1540.83c34,34,66-31.1,64-42.88-16.84-24.75-20.63-52.84-20.63-52.84l-59.13,43,2.19,5.67a268.92,268.92,0,0,1,9.44,27.48C1945.7,1525.93,1947.74,1535.76,1948.55,1540.83Z"/><path class="cls-2" d="M1944.45,1521.29c32.42-17.9,44.47-60.26,44.47-60.26L1935,1493.81A268.92,268.92,0,0,1,1944.45,1521.29Z"/><path class="cls-3" d="M1904,1443.35s-9.83-14.79-22-7.28,0,51.72,24.79,43.11Z"/><path class="cls-14" d="M1910.48,1512a22.9,22.9,0,1,1,19.16-26.11A22.92,22.92,0,0,1,1910.48,1512Zm-6.43-41.89a19.48,19.48,0,1,0,22.21,16.3A19.51,19.51,0,0,0,1904.05,1470.15Z"/><path class="cls-5" d="M1994.38,1450.13c-2,19.57-42.18,52.82-63.45,49.27-12.91-2.16-26-10-38.07-32.05l-.19-.35c-.71-1.3-1.39-2.59-2.05-3.87-1.19-2.31-2.29-4.58-3.27-6.77l-.68-1.54c-.59-1.37-1.13-2.7-1.62-4-.61-1.59-1.15-3.12-1.59-4.56-7.17-23.45-15.72-49.66,1.83-70.32s50.09-33.85,75.21-17.94c0,0,19.38,14.55,28.08,48.9S1995.82,1436,1994.38,1450.13Z"/><path class="cls-14" d="M1939.56,1449.21s5.31,15.29-6.94,21.2-18.66-5.87-18.66-5.87Z"/><path class="cls-16" d="M1937.45,1475a7.34,7.34,0,0,0,2.88-3.88,1.22,1.22,0,0,0-2.37-.62,5,5,0,0,1-4.42,3.34,1.22,1.22,0,0,0,.26,2.43A8,8,0,0,0,1937.45,1475Z"/><path class="cls-2" d="M1941.55,1417.38a1.93,1.93,0,0,0,.48-.64,1.89,1.89,0,0,0-.94-2.5,11.47,11.47,0,0,0-11.9,2c-4.84,4.2-3.71,11-3.66,11.31a1.88,1.88,0,1,0,3.71-.65s-.8-5,2.42-7.81a7.7,7.7,0,0,1,7.87-1.37A1.88,1.88,0,0,0,1941.55,1417.38Z"/><path class="cls-2" d="M1911.86,1437.45a1.88,1.88,0,0,0,.39-2.38c-.12-.2-2.93-4.85-8.22-4.3a10.74,10.74,0,0,0-8.22,5.82,1.89,1.89,0,0,0,3.41,1.61,6.92,6.92,0,0,1,5.2-3.68c2.91-.31,4.57,2.43,4.59,2.46a1.86,1.86,0,0,0,2.85.47Z"/><path class="cls-16" d="M1920.49,1452a1.5,1.5,0,0,1-.87.09l-8-1.38a1.57,1.57,0,0,1-.95-2.52c4-5,5.4-10.85,4.31-18.47a1.56,1.56,0,1,1,3.08-.44c1.08,7.51,0,13.55-3.44,18.78l5.53,1a1.56,1.56,0,0,1,.34,3Z"/><path class="cls-2" d="M1919.09,1404.92c-3.6,2.06-7.48-2.4-4.86-5.62a11,11,0,0,1,6.71-3.78c14-2.7,23.44,6.88,23.44,6.88s-14.5-1.53-21.41.78A21.5,21.5,0,0,0,1919.09,1404.92Z"/><path class="cls-2" d="M1899,1414.05c4-1.11,3.55-7-.58-7.41a11,11,0,0,0-7.41,2.12c-11.77,8.08-8.75,17.64-8.75,17.64s6.28-7.51,12.79-10.81A21.35,21.35,0,0,1,1899,1414.05Z"/><path class="cls-2" d="M1941.23,1358.74s21,34,33.68,38.57S1992,1381.4,1992,1381.4,1955.2,1330.52,1941.23,1358.74Z"/><path class="cls-2" d="M1895.46,1372.08s28.93,25,53.66,10.94,1.08-31.56,1.08-31.56S1895.46,1344.1,1895.46,1372.08Z"/><path class="cls-2" d="M1901.91,1367.7s-2.9,43-30.68,43-1.31-48.61,16.49-51.56S1901.91,1367.7,1901.91,1367.7Z"/><path class="cls-5" d="M1978.81,1405.08s3.86-16,19.51-14,23.57,51.92-5.26,54.56Z"/><path class="cls-2" d="M1966.21,1387.67s4.34,44.67,13,38.11,4.78-33.07,4.78-33.07Z"/><path class="cls-14" d="M2010.59,1431.15c-.52,1.13-.72,2.2-1.26,3.33a19.49,19.49,0,1,1-11.74,4.12c3.72-2.34,3.86-4.18,3.51-5.92a22.9,22.9,0,1,0,31.11,17.8C2030.55,1439.63,2021.14,1431.77,2010.59,1431.15Z"/><path class="cls-2" d="M1991.17,1425.86a1.36,1.36,0,0,0,1.4,1.31,1.45,1.45,0,0,0,.3,0,1.35,1.35,0,0,0,1-1.36,27.9,27.9,0,0,1,1.93-10.09c3.38,1.6,6.16,3.19,6.2,3.21a1.34,1.34,0,0,0,1,.14,1.4,1.4,0,0,0,.84-.64,1.36,1.36,0,0,0-.51-1.85c-.12-.08-2.9-1.66-6.37-3.31a16.6,16.6,0,0,1,6.86-6.78,1.36,1.36,0,0,0-1.25-2.41C1990.76,1410.17,1991.15,1425.22,1991.17,1425.86Z"/><path class="cls-18" d="M2218.16,1622.28l-115.51,431-431-115.51,31.78-118.58a56.46,56.46,0,0,1,24-33.19,43.21,43.21,0,0,1,17.34-6.6c20.82-2.85,40.26,15,44.3,19l.68.68.08.08h0a67.74,67.74,0,1,0,30.35-113.24h0l-.11,0-.92.24c-5.48,1.42-31.25,7.16-47.86-5.71a43.48,43.48,0,0,1-11.72-14.4,56.47,56.47,0,0,1-4.15-40.73l31.78-118.57Z"/><path class="cls-3" d="M2119.39,1615.69c.6-.25,1.47-.56,2.24-.84l2.4-.85,4.84-1.73,9.72-3.43q9.7-3.43,19.28-6.95c12.73-4.68,25.24-9.55,36.9-14.75,2.91-1.32,5.78-2.61,8.54-4s5.44-2.74,8-4.11,5-2.79,7.18-4.21a63.74,63.74,0,0,0,5.83-4.06,26.87,26.87,0,0,0,3.44-3.22c.24-.34.43-.6.3-.56a.91.91,0,0,0-.25.23,3.64,3.64,0,0,0-.25.31,1.88,1.88,0,0,0-.12.18l-.34.58a21.51,21.51,0,0,0-1.63,3.83,24.16,24.16,0,0,0-1,5.47,25.07,25.07,0,0,0,.26,6,24,24,0,0,0,1.34,4.91,20.27,20.27,0,0,0,1.54,3.21,19.48,19.48,0,0,0,1.16,1.75c.6.79.81,1,.69,1s-1.56-1-3.3-1.94-4-2-6.41-3.06c-4.87-2.09-10.52-4.21-16.42-6.13s-12.1-3.83-18.43-5.59-12.78-3.44-19.3-5.12c-13.07-3.27-26.39-6.39-39.81-9.4l-20.17-4.5-19.93-4.48-.6-.13a33.89,33.89,0,0,1,9.6-66.88l2.94.19,2.81.21,5.55.45q5.52.48,11,1.1,11,1.2,21.92,2.82c14.59,2.16,29.18,4.75,43.83,8,7.35,1.6,14.69,3.45,22.1,5.43s14.86,4.25,22.45,6.84a237.61,237.61,0,0,1,23.38,9.32c4,1.91,8.22,4,12.62,6.64a93.72,93.72,0,0,1,14.25,10.2,67.86,67.86,0,0,1,8.19,8.53A58.78,58.78,0,0,1,2290,1553a54.15,54.15,0,0,1,4,8,49.92,49.92,0,0,1,2.81,10,47.6,47.6,0,0,1-1.43,22,50,50,0,0,1-3.66,8.78l-.52,1-.25.45-.2.34-.81,1.32c-.54.86-1.11,1.81-1.66,2.58l-1.7,2.36c-.58.8-1.13,1.45-1.71,2.17a76.23,76.23,0,0,1-6.87,7.35,93.08,93.08,0,0,1-13.16,10.17,145.92,145.92,0,0,1-24.28,12.49,235.38,235.38,0,0,1-23,8,350,350,0,0,1-44.89,9.89c-7.43,1.18-14.86,2.1-22.3,2.85q-5.58.54-11.19.92c-1.87.13-3.76.21-5.65.31l-2.85.13-3,.1a24.78,24.78,0,0,1-10.3-47.65Z"/><path class="cls-5" d="M2109.65,1622s-28.36,6.44-46.29,12.32c-12.33,4-23.12,5-24.9,10.94s24.79,3.81,27.17,3.6S2109.65,1622,2109.65,1622Z"/><path class="cls-5" d="M2133.38,1625.47c9.08,10.78,7,26.88-3.48,36.31-5.52,5-11.12,11-14.1,16.79-7.15,14-7.7,33.8-16.44,42.3s-11.3,5.9-10.51-4.6,4.53-29.76,4.53-29.76-12.35,23.71-13.13,34.21-8.59,15.9-13.46,5.68,3.3-39.18,7.73-46.59c0,0-11.39,12.66-12.93,26.85s-1.79,22.27-5.19,26.94-11.59-2-8.93-21.79,6-30.89,11.6-38.8c0,0-6.64,4.26-15.77,13.43s-9.61,25.71-16.93,28.24c-7.48,2.59-6.1-16.43-.64-26.59s8.56-18,20-27.35,22.58-17.9,30.74-21.86,35.32-21.87,48.16-19.38C2127.86,1620.13,2130.81,1622.42,2133.38,1625.47Z"/><path class="cls-5" d="M2112.33,1619.74s26.75,7.12,31.79,43.82c0,0,7.81,3.58,12.18-1.47,0,0-5.58-39.08-32.27-48.09C2124,1614,2114.93,1613.76,2112.33,1619.74Z"/><path class="cls-16" d="M2137.15,1566.48a1.59,1.59,0,0,1-1.83,1.12c-.4-.08-40.78-8-58.47-12.9a1.59,1.59,0,0,1,.85-3.06c17.57,4.9,57.83,12.77,58.23,12.85a1.58,1.58,0,0,1,1.25,1.86A.79.79,0,0,1,2137.15,1566.48Z"/><path class="cls-16" d="M2089.63,1556.51a1.61,1.61,0,0,1-.78,1.14l-10.91,6.24a1.58,1.58,0,1,1-1.57-2.75l10.9-6.24a1.59,1.59,0,0,1,2.17.58A1.65,1.65,0,0,1,2089.63,1556.51Z"/><path class="cls-16" d="M2231.34,1570a1.56,1.56,0,0,1-1.34,1.23c-10.26,1.32-22.28,11.71-22.4,11.82a1.59,1.59,0,0,1-2.09-2.39c.52-.46,12.88-11.13,24.08-12.57a1.59,1.59,0,0,1,1.78,1.37A1.61,1.61,0,0,1,2231.34,1570Z"/><path class="cls-16" d="M2222.68,1562.67a1.56,1.56,0,0,1-.75,1c-.24.15-5.62,3.47-6.27,12.7a1.58,1.58,0,1,1-3.16-.23c.78-11,7.55-15,7.84-15.21a1.59,1.59,0,0,1,2.34,1.71Z"/><path class="cls-5" d="M1754.86,1630.8S1741.23,1622,1746,1612s30.29-15.45,39.39-16.75-5.37,14.83-14.49,17.86-10.72,8-10.72,8Z"/><path class="cls-5" d="M1766.73,1596.39s-13.62-8.82-8.9-18.83,30.28-15.45,39.38-16.74-5.36,14.82-14.49,17.85-10.71,8-10.71,8Z"/><path class="cls-5" d="M1770.41,1578.84s-12-7.79-7.87-16.64,26.76-13.64,34.8-14.79-4.74,13.1-12.8,15.77-9.47,7-9.47,7Z"/><path class="cls-5" d="M1761.47,1614.09s-13.63-8.82-8.91-18.84,30.29-15.44,39.39-16.74-5.36,14.82-14.49,17.86-10.71,8-10.71,8Z"/></svg>